<?xml version="1.0" standalone="no"?><!DOCTYPE svg PUBLIC "-//W3C//DTD SVG 1.1//EN" "http://www.w3.org/Graphics/SVG/1.1/DTD/svg11.dtd" ><svg version="1.1" xmlns="http://www.w3.org/2000/svg"><defs><font horiz-adv-x="0" id="font"><font-face ascent="650" bbox="-120 -201 908 894" cap-height="614" descent="-350" font-family="Copyright Klim Type Foundry" font-stretch="normal" font-style="normal" font-weight="400" units-per-em="1000" x-height="444" /><missing-glyph horiz-adv-x="608" /><glyph glyph-name=".null" horiz-adv-x="0" /><glyph d="M197 254H398L297 516ZM424 185H171L101 0H21L261 614H335L575 0H495Z" glyph-name="A" horiz-adv-x="596" unicode="A" /><glyph d="M257 254H437V550ZM437 185H215L103 0H21L390 614H811V544H514V350H782V280H514V71H811V0H437Z" glyph-name="AE" horiz-adv-x="862" unicode="&#198;" /><glyph d="M257 254H437V550ZM437 185H215L103 0H21L390 614H811V544H514V350H782V280H514V71H811V0H437ZM544 668 624 785H711L620 668Z" glyph-name="AEacute" horiz-adv-x="862" unicode="&#508;" /><glyph d="M197 254H398L297 516ZM424 185H171L101 0H21L261 614H335L575 0H495ZM257 668 337 785H424L333 668Z" glyph-name="Aacute" horiz-adv-x="596" unicode="&#193;" /><glyph d="M197 254H398L297 516ZM424 185H171L101 0H21L261 614H335L575 0H495ZM298 666Q247 666 215 697Q183 728 183 786H240Q240 754 256.5 738Q273 722 298 722Q324 722 340.5 738Q357 754 357 786H414Q414 728 382 697Q350 666 298 666Z" glyph-name="Abreve" horiz-adv-x="596" unicode="&#258;" /><glyph d="M197 254H398L297 516ZM424 185H171L101 0H21L261 614H335L575 0H495ZM425 669H357L298 740L239 669H171L263 791H333Z" glyph-name="Acircumflex" horiz-adv-x="596" unicode="&#194;" /><glyph d="M197 254H398L297 516ZM424 185H171L101 0H21L261 614H335L575 0H495ZM182 722Q182 741 196 754.5Q210 768 229 768Q248 768 261.5 754.5Q275 741 275 722Q275 703 261.5 689.5Q248 676 229 676Q210 676 196 689.5Q182 703 182 722ZM323 722Q323 741 336 754.5Q349 768 368 768Q387 768 401 754.5Q415 741 415 722Q415 703 401 689.5Q387 676 368 676Q349 676 336 689.5Q323 703 323 722Z" glyph-name="Adieresis" horiz-adv-x="596" unicode="&#196;" /><glyph d="M197 254H398L297 516ZM424 185H171L101 0H21L261 614H335L575 0H495ZM262 668 170 785H257L337 668Z" glyph-name="Agrave" horiz-adv-x="596" unicode="&#192;" /><glyph d="M197 254H398L297 516ZM424 185H171L101 0H21L261 614H335L575 0H495ZM192 732H405V671H192Z" glyph-name="Amacron" horiz-adv-x="596" unicode="&#256;" /><glyph d="M335 614 575 0Q545 -49 535 -68.5Q525 -88 525 -106Q525 -119 531.5 -125.5Q538 -132 548 -132Q558 -132 566 -128Q574 -124 585 -117V-167Q574 -175 561.5 -180.5Q549 -186 533 -186Q501 -186 483.5 -168Q466 -150 466 -120Q466 -92 480.5 -65Q495 -38 519 0H495L424 185H171L101 0H21L261 614ZM197 254H398L297 516Z" glyph-name="Aogonek" horiz-adv-x="596" unicode="&#260;" /><glyph d="M197 254H398L297 516ZM424 185H171L101 0H21L261 614H335L575 0H495ZM385 734Q385 698 360 673Q335 648 298 648Q261 648 236 673Q211 698 211 734Q211 771 236 796Q261 821 298 821Q335 821 360 796Q385 771 385 734ZM343 734Q343 753 330 766.5Q317 780 298 780Q279 780 266 766.5Q253 753 253 734Q253 715 266 702Q279 689 298 689Q317 689 330 702Q343 715 343 734Z" glyph-name="Aring" horiz-adv-x="596" unicode="&#197;" /><glyph d="M265 808 320 894H406L339 808ZM386 711Q386 680 360 658.5Q334 637 297 637Q260 637 234.5 658.5Q209 680 209 711Q209 742 234.5 763.5Q260 785 297 785Q334 785 360 763.5Q386 742 386 711ZM344 711Q344 727 330 737Q316 747 297 747Q278 747 264.5 737Q251 727 251 711Q251 695 264.5 685Q278 675 297 675Q316 675 330 685Q344 695 344 711ZM197 254H398L297 516ZM424 185H171L101 0H21L261 614H335L575 0H495Z" glyph-name="Aringacute" horiz-adv-x="596" unicode="&#506;" /><glyph d="M197 254H398L297 516ZM424 185H171L101 0H21L261 614H335L575 0H495ZM432 784Q432 731 412.5 698Q393 665 356 665Q319 665 296 693Q273 721 246 721Q229 721 220.5 707Q212 693 212 668H163Q163 721 182.5 754Q202 787 239 787Q276 787 299 759Q322 731 350 731Q366 731 374.5 745Q383 759 384 784Z" glyph-name="Atilde" horiz-adv-x="596" unicode="&#195;" /><glyph d="M388 318Q437 305 468 264.5Q499 224 499 173Q499 89 444 44.5Q389 0 295 0H73V614H275Q370 614 424 572Q478 530 478 451Q478 397 451 363Q424 329 388 318ZM275 347Q336 347 369 372Q402 397 402 447Q402 497 369 521Q336 545 275 545H150V347ZM150 69H295Q357 69 389.5 98Q422 127 422 175Q422 224 389.5 252.5Q357 281 295 281H150Z" glyph-name="B" horiz-adv-x="538" unicode="B" /><glyph d="M116 307Q116 199 170 130.5Q224 62 312 62Q375 62 414.5 94.5Q454 127 473 181L546 160Q524 83 463 37Q402 -9 312 -9Q196 -9 116.5 77.5Q37 164 37 307Q37 450 116.5 536.5Q196 623 312 623Q402 623 463 577Q524 531 546 454L473 433Q454 487 414.5 519.5Q375 552 312 552Q224 552 170 483.5Q116 415 116 307Z" glyph-name="C" horiz-adv-x="583" unicode="C" /><glyph d="M116 307Q116 199 170 130.5Q224 62 312 62Q375 62 414.5 94.5Q454 127 473 181L546 160Q524 83 463 37Q402 -9 312 -9Q196 -9 116.5 77.5Q37 164 37 307Q37 450 116.5 536.5Q196 623 312 623Q402 623 463 577Q524 531 546 454L473 433Q454 487 414.5 519.5Q375 552 312 552Q224 552 170 483.5Q116 415 116 307ZM273 668 353 785H440L349 668Z" glyph-name="Cacute" horiz-adv-x="583" unicode="&#262;" /><glyph d="M116 307Q116 199 170 130.5Q224 62 312 62Q375 62 414.5 94.5Q454 127 473 181L546 160Q524 83 463 37Q402 -9 312 -9Q196 -9 116.5 77.5Q37 164 37 307Q37 450 116.5 536.5Q196 623 312 623Q402 623 463 577Q524 531 546 454L473 433Q454 487 414.5 519.5Q375 552 312 552Q224 552 170 483.5Q116 415 116 307ZM188 787H256L315 716L374 787H442L350 666H280Z" glyph-name="Ccaron" horiz-adv-x="583" unicode="&#268;" /><glyph d="M116 307Q116 199 170 130.5Q224 62 312 62Q375 62 414.5 94.5Q454 127 473 181L546 160Q524 83 463 37Q402 -9 312 -9Q196 -9 116.5 77.5Q37 164 37 307Q37 450 116.5 536.5Q196 623 312 623Q402 623 463 577Q524 531 546 454L473 433Q454 487 414.5 519.5Q375 552 312 552Q224 552 170 483.5Q116 415 116 307ZM216 -183 282 -51H356L287 -183Z" glyph-name="Ccedilla" horiz-adv-x="583" unicode="&#199;" /><glyph d="M116 307Q116 199 170 130.5Q224 62 312 62Q375 62 414.5 94.5Q454 127 473 181L546 160Q524 83 463 37Q402 -9 312 -9Q196 -9 116.5 77.5Q37 164 37 307Q37 450 116.5 536.5Q196 623 312 623Q402 623 463 577Q524 531 546 454L473 433Q454 487 414.5 519.5Q375 552 312 552Q224 552 170 483.5Q116 415 116 307ZM445 669H377L318 740L259 669H191L283 791H353Z" glyph-name="Ccircumflex" horiz-adv-x="583" unicode="&#264;" /><glyph d="M116 307Q116 199 170 130.5Q224 62 312 62Q375 62 414.5 94.5Q454 127 473 181L546 160Q524 83 463 37Q402 -9 312 -9Q196 -9 116.5 77.5Q37 164 37 307Q37 450 116.5 536.5Q196 623 312 623Q402 623 463 577Q524 531 546 454L473 433Q454 487 414.5 519.5Q375 552 312 552Q224 552 170 483.5Q116 415 116 307ZM363 721Q363 702 348.5 687.5Q334 673 315 673Q296 673 281.5 687.5Q267 702 267 721Q267 741 281.5 755.5Q296 770 315 770Q334 770 348.5 755.5Q363 741 363 721Z" glyph-name="Cdotaccent" horiz-adv-x="583" unicode="&#266;" /><glyph d="M73 614H270Q404 614 486 530.5Q568 447 568 307Q568 167 486 83.5Q404 0 270 0H73ZM269 71Q373 71 431.5 135.5Q490 200 490 307Q490 414 431.5 479Q373 544 269 544H152V71Z" glyph-name="D" horiz-adv-x="605" unicode="D" /><glyph d="M73 614H270Q404 614 486 530.5Q568 447 568 307Q568 167 486 83.5Q404 0 270 0H73ZM269 71Q373 71 431.5 135.5Q490 200 490 307Q490 414 431.5 479Q373 544 269 544H152V71ZM153 787H221L280 716L339 787H407L315 666H245Z" glyph-name="Dcaron" horiz-adv-x="605" unicode="&#270;" /><glyph d="M88 0V284H32V351H88V614H285Q419 614 501 530.5Q583 447 583 307Q583 167 501 83.5Q419 0 285 0ZM284 71Q388 71 446.5 135.5Q505 200 505 307Q505 414 446.5 479Q388 544 284 544H167V351H290V284H167V71Z" glyph-name="Dcroat" horiz-adv-x="620" unicode="&#272;" /><glyph d="M464 614V544H151V350H435V280H151V71H464V0H73V614Z" glyph-name="E" horiz-adv-x="515" unicode="E" /><glyph d="M464 614V544H151V350H435V280H151V71H464V0H73V614ZM229 668 309 785H396L305 668Z" glyph-name="Eacute" horiz-adv-x="515" unicode="&#201;" /><glyph d="M464 614V544H151V350H435V280H151V71H464V0H73V614ZM273 666Q222 666 190 697Q158 728 158 786H215Q215 754 231.5 738Q248 722 273 722Q299 722 315.5 738Q332 754 332 786H389Q389 728 357 697Q325 666 273 666Z" glyph-name="Ebreve" horiz-adv-x="515" unicode="&#276;" /><glyph d="M464 614V544H151V350H435V280H151V71H464V0H73V614ZM150 787H218L277 716L336 787H404L312 666H242Z" glyph-name="Ecaron" horiz-adv-x="515" unicode="&#282;" /><glyph d="M464 614V544H151V350H435V280H151V71H464V0H73V614ZM400 669H332L273 740L214 669H146L238 791H308Z" glyph-name="Ecircumflex" horiz-adv-x="515" unicode="&#202;" /><glyph d="M464 614V544H151V350H435V280H151V71H464V0H73V614ZM157 722Q157 741 171 754.5Q185 768 204 768Q223 768 236.5 754.5Q250 741 250 722Q250 703 236.5 689.5Q223 676 204 676Q185 676 171 689.5Q157 703 157 722ZM298 722Q298 741 311 754.5Q324 768 343 768Q362 768 376 754.5Q390 741 390 722Q390 703 376 689.5Q362 676 343 676Q324 676 311 689.5Q298 703 298 722Z" glyph-name="Edieresis" horiz-adv-x="515" unicode="&#203;" /><glyph d="M464 614V544H151V350H435V280H151V71H464V0H73V614ZM321 721Q321 702 306.5 687.5Q292 673 273 673Q254 673 239.5 687.5Q225 702 225 721Q225 741 239.5 755.5Q254 770 273 770Q292 770 306.5 755.5Q321 741 321 721Z" glyph-name="Edotaccent" horiz-adv-x="515" unicode="&#278;" /><glyph d="M464 614V544H151V350H435V280H151V71H464V0H73V614ZM238 668 146 785H233L313 668Z" glyph-name="Egrave" horiz-adv-x="515" unicode="&#200;" /><glyph d="M464 614V544H151V350H435V280H151V71H464V0H73V614ZM167 732H380V671H167Z" glyph-name="Emacron" horiz-adv-x="515" unicode="&#274;" /><glyph d="M290 -86Q309 -98 327.5 -102.5Q346 -107 368 -107Q419 -107 446.5 -78.5Q474 -50 475 25L149 488V0H73V614H148L475 147V614H550V33Q550 -68 503 -123.5Q456 -179 372 -179Q341 -179 314.5 -171.5Q288 -164 269 -154Z" glyph-name="Eng" horiz-adv-x="623" unicode="&#330;" /><glyph d="M441 -167Q431 -175 418 -180.5Q405 -186 389 -186Q357 -186 340 -168Q323 -150 323 -120Q323 -92 338 -64.5Q353 -37 376 0H73V614H464V544H151V350H435V280H151V71H464V0H432Q404 -47 393 -67.5Q382 -88 382 -106Q382 -119 388 -125.5Q394 -132 404 -132Q414 -132 422.5 -128Q431 -124 441 -117V-167Z" glyph-name="Eogonek" horiz-adv-x="515" unicode="&#280;" /><glyph d="M88 0V284H32V351H88V614H285Q419 614 501 530.5Q583 447 583 307Q583 167 501 83.5Q419 0 285 0ZM284 71Q388 71 446.5 135.5Q505 200 505 307Q505 414 446.5 479Q388 544 284 544H167V351H290V284H167V71Z" glyph-name="Eth" horiz-adv-x="620" unicode="&#208;" /><glyph d="M512 139Q492 70 442 30.5Q392 -9 320 -9Q236 -9 174 50Q112 109 91 210H29V270H82Q81 279 81 288Q81 297 81 307Q81 315 81 323.5Q81 332 82 339H29V399H90Q110 503 172.5 563Q235 623 320 623Q392 623 442 583.5Q492 544 512 475L445 455Q432 501 400 527.5Q368 554 320 554Q262 554 222 512Q182 470 166 399H371L359 339H158Q157 332 157 323.5Q157 315 157 307Q157 297 157 288Q157 279 158 270H349L337 210H168Q184 141 223.5 100.5Q263 60 320 60Q368 60 400 86.5Q432 113 445 159L512 139Z" glyph-name="Euro" horiz-adv-x="543" unicode="&#8364;" /><glyph d="M493 139Q474 70 426 30.5Q378 -9 309 -9Q229 -9 169 50Q109 109 88 210H24V270H80Q79 279 79 288Q79 297 79 307Q79 315 79 323.5Q79 332 80 339H24V399H87Q107 503 167.5 563Q228 623 309 623Q378 623 426 583.5Q474 544 493 475L426 455Q413 501 383 527.5Q353 554 308 554Q253 554 216 512Q179 470 165 399H356L344 339H157Q156 332 156 323.5Q156 315 156 307Q156 297 156 288Q156 279 157 270H334L322 210H166Q180 141 217 100.5Q254 60 308 60Q353 60 383 86.5Q413 113 426 159L493 139Z" glyph-name="Euro.lt" horiz-adv-x="520" /><glyph d="M73 0V614H448V544H152V337H430V267H152V0Z" glyph-name="F" horiz-adv-x="485" unicode="F" /><glyph d="M351 235V303H573V261Q573 134 502 62.5Q431 -9 319 -9Q200 -9 118.5 77.5Q37 164 37 307Q37 450 118.5 536.5Q200 623 317 623Q409 623 470 577Q531 531 553 455L480 434Q461 488 421.5 520Q382 552 317 552Q228 552 172 484.5Q116 417 116 307Q116 197 172 129Q228 61 319 61Q399 61 445 106Q491 151 498 235Z" glyph-name="G" horiz-adv-x="610" unicode="G" /><glyph d="M351 235V303H573V261Q573 134 502 62.5Q431 -9 319 -9Q200 -9 118.5 77.5Q37 164 37 307Q37 450 118.5 536.5Q200 623 317 623Q409 623 470 577Q531 531 553 455L480 434Q461 488 421.5 520Q382 552 317 552Q228 552 172 484.5Q116 417 116 307Q116 197 172 129Q228 61 319 61Q399 61 445 106Q491 151 498 235ZM319 666Q268 666 236 697Q204 728 204 786H261Q261 754 277.5 738Q294 722 319 722Q345 722 361.5 738Q378 754 378 786H435Q435 728 403 697Q371 666 319 666Z" glyph-name="Gbreve" horiz-adv-x="610" unicode="&#286;" /><glyph d="M351 235V303H573V261Q573 134 502 62.5Q431 -9 319 -9Q200 -9 118.5 77.5Q37 164 37 307Q37 450 118.5 536.5Q200 623 317 623Q409 623 470 577Q531 531 553 455L480 434Q461 488 421.5 520Q382 552 317 552Q228 552 172 484.5Q116 417 116 307Q116 197 172 129Q228 61 319 61Q399 61 445 106Q491 151 498 235ZM445 669H377L318 740L259 669H191L283 791H353Z" glyph-name="Gcircumflex" horiz-adv-x="610" unicode="&#284;" /><glyph d="M351 235V303H573V261Q573 134 502 62.5Q431 -9 319 -9Q200 -9 118.5 77.5Q37 164 37 307Q37 450 118.5 536.5Q200 623 317 623Q409 623 470 577Q531 531 553 455L480 434Q461 488 421.5 520Q382 552 317 552Q228 552 172 484.5Q116 417 116 307Q116 197 172 129Q228 61 319 61Q399 61 445 106Q491 151 498 235ZM310 -137Q293 -135 281.5 -123Q270 -111 270 -93Q270 -72 284.5 -58.5Q299 -45 320 -45Q340 -45 354.5 -59Q369 -73 369 -95Q369 -111 362 -125Q355 -139 347 -152L318 -201H271Z" glyph-name="Gcommaaccent" horiz-adv-x="610" unicode="&#290;" /><glyph d="M351 235V303H573V261Q573 134 502 62.5Q431 -9 319 -9Q200 -9 118.5 77.5Q37 164 37 307Q37 450 118.5 536.5Q200 623 317 623Q409 623 470 577Q531 531 553 455L480 434Q461 488 421.5 520Q382 552 317 552Q228 552 172 484.5Q116 417 116 307Q116 197 172 129Q228 61 319 61Q399 61 445 106Q491 151 498 235ZM368 721Q368 702 353.5 687.5Q339 673 320 673Q301 673 286.5 687.5Q272 702 272 721Q272 741 286.5 755.5Q301 770 320 770Q339 770 353.5 755.5Q368 741 368 721Z" glyph-name="Gdotaccent" horiz-adv-x="610" unicode="&#288;" /><glyph d="M578 614V0H499V280H152V0H73V614H152V351H499V614Z" glyph-name="H" horiz-adv-x="651" unicode="H" /><glyph d="M513 310V430H166V310ZM166 0H87V430H32V496H87V614H166V496H513V614H592V496H647V430H592V0H513V244H166Z" glyph-name="Hbar" horiz-adv-x="679" unicode="&#294;" /><glyph d="M578 614V0H499V280H152V0H73V614H152V351H499V614ZM452 669H384L325 740L266 669H198L290 791H360Z" glyph-name="Hcircumflex" horiz-adv-x="651" unicode="&#292;" /><glyph d="M152 0H73V614H152Z" glyph-name="I" horiz-adv-x="225" unicode="I" /><glyph d="M152 0H73V614H152ZM288 174Q296 123 327 93Q358 63 408 63Q463 63 496 96.5Q529 130 529 204V614H608V204Q608 97 552 44Q496 -9 409 -9Q325 -9 274 35Q223 79 210 151Z" glyph-name="IJ" horiz-adv-x="668" unicode="&#306;" /><glyph d="M152 0H73V614H152ZM68 668 148 785H235L144 668Z" glyph-name="Iacute" horiz-adv-x="225" unicode="&#205;" /><glyph d="M152 0H73V614H152ZM112 666Q61 666 29 697Q-3 728 -3 786H54Q54 754 70.5 738Q87 722 112 722Q138 722 154.5 738Q171 754 171 786H228Q228 728 196 697Q164 666 112 666Z" glyph-name="Ibreve" horiz-adv-x="225" unicode="&#300;" /><glyph d="M152 0H73V614H152ZM239 669H171L112 740L53 669H-15L77 791H147Z" glyph-name="Icircumflex" horiz-adv-x="225" unicode="&#206;" /><glyph d="M152 0H73V614H152ZM-4 722Q-4 741 10 754.5Q24 768 43 768Q62 768 75.5 754.5Q89 741 89 722Q89 703 75.5 689.5Q62 676 43 676Q24 676 10 689.5Q-4 703 -4 722ZM137 722Q137 741 150 754.5Q163 768 182 768Q201 768 215 754.5Q229 741 229 722Q229 703 215 689.5Q201 676 182 676Q163 676 150 689.5Q137 703 137 722Z" glyph-name="Idieresis" horiz-adv-x="225" unicode="&#207;" /><glyph d="M152 0H73V614H152ZM160 721Q160 702 145.5 687.5Q131 673 112 673Q93 673 78.5 687.5Q64 702 64 721Q64 741 78.5 755.5Q93 770 112 770Q131 770 145.5 755.5Q160 741 160 721Z" glyph-name="Idotaccent" horiz-adv-x="225" unicode="&#304;" /><glyph d="M152 0H73V614H152ZM78 668 -14 785H73L153 668Z" glyph-name="Igrave" horiz-adv-x="225" unicode="&#204;" /><glyph d="M152 0H73V614H152ZM6 732H219V671H6Z" glyph-name="Imacron" horiz-adv-x="225" unicode="&#298;" /><glyph d="M152 0Q122 -49 112 -68.5Q102 -88 102 -106Q102 -119 108.5 -125.5Q115 -132 125 -132Q135 -132 143.5 -128Q152 -124 162 -117V-167Q152 -175 139 -180.5Q126 -186 110 -186Q78 -186 61 -168Q44 -150 44 -120Q44 -92 58.5 -64.5Q73 -37 96 0H73V614H152Z" glyph-name="Iogonek" horiz-adv-x="225" unicode="&#302;" /><glyph d="M152 0H73V614H152ZM247 784Q247 731 227.5 698Q208 665 171 665Q134 665 111 693Q88 721 61 721Q44 721 35.5 707Q27 693 27 668H-22Q-22 721 -2.5 754Q17 787 54 787Q91 787 114 759Q137 731 165 731Q181 731 189.5 745Q198 759 199 784Z" glyph-name="Itilde" horiz-adv-x="225" unicode="&#296;" /><glyph d="M98 174Q106 123 137 93Q168 63 218 63Q273 63 306 96.5Q339 130 339 204V614H418V204Q418 97 362 44Q306 -9 219 -9Q135 -9 84 35Q33 79 20 151Z" glyph-name="J" horiz-adv-x="479" unicode="J" /><glyph d="M98 174Q106 123 137 93Q168 63 218 63Q273 63 306 96.5Q339 130 339 204V614H418V204Q418 97 362 44Q306 -9 219 -9Q135 -9 84 35Q33 79 20 151ZM506 669H438L379 740L320 669H252L344 791H414Z" glyph-name="Jcircumflex" horiz-adv-x="479" unicode="&#308;" /><glyph d="M152 307 438 614H538L275 334L547 0H449L218 280L152 209V0H73V614H152Z" glyph-name="K" horiz-adv-x="564" unicode="K" /><glyph d="M152 307 438 614H538L275 334L547 0H449L218 280L152 209V0H73V614H152ZM255 -137Q238 -135 226.5 -123Q215 -111 215 -93Q215 -72 229.5 -58.5Q244 -45 265 -45Q285 -45 299.5 -59Q314 -73 314 -95Q314 -111 307 -125Q300 -139 292 -152L263 -201H216Z" glyph-name="Kcommaaccent" horiz-adv-x="564" unicode="&#310;" /><glyph d="M73 614H152V71H465V0H73Z" glyph-name="L" horiz-adv-x="504" unicode="L" /><glyph d="M73 614H152V71H465V0H73ZM80 668 160 785H247L156 668Z" glyph-name="Lacute" horiz-adv-x="504" unicode="&#313;" /><glyph d="M73 614H152V71H465V0H73ZM261 450 294 614H354L321 450Z" glyph-name="Lcaron" horiz-adv-x="504" unicode="&#317;" /><glyph d="M73 614H152V71H465V0H73ZM270 -137Q253 -135 241.5 -123Q230 -111 230 -93Q230 -72 244.5 -58.5Q259 -45 280 -45Q300 -45 314.5 -59Q329 -73 329 -95Q329 -111 322 -125Q315 -139 307 -152L278 -201H231Z" glyph-name="Lcommaaccent" horiz-adv-x="504" unicode="&#315;" /><glyph d="M73 614H152V71H465V0H73ZM412 307Q412 288 397.5 273.5Q383 259 364 259Q345 259 330.5 273.5Q316 288 316 307Q316 327 330.5 341Q345 355 364 355Q383 355 397.5 341Q412 327 412 307Z" glyph-name="Ldot" horiz-adv-x="504" unicode="&#319;" /><glyph d="M92 0V251L30 226V299L92 324V614H171V354L325 416V344L171 282V71H484V0Z" glyph-name="Lslash" horiz-adv-x="523" unicode="&#321;" /><glyph d="M342 0 148 468V0H73V614H162L370 110L577 614H663V0H588V468L396 0Z" glyph-name="M" horiz-adv-x="736" unicode="M" /><glyph d="M550 0H492L149 488V0H73V614H148L475 147V614H550Z" glyph-name="N" horiz-adv-x="623" unicode="N" /><glyph d="M550 0H492L149 488V0H73V614H148L475 147V614H550ZM267 668 347 785H434L343 668Z" glyph-name="Nacute" horiz-adv-x="623" unicode="&#323;" /><glyph d="M550 0H492L149 488V0H73V614H148L475 147V614H550ZM185 787H253L312 716L371 787H439L347 666H277Z" glyph-name="Ncaron" horiz-adv-x="623" unicode="&#327;" /><glyph d="M550 0H492L149 488V0H73V614H148L475 147V614H550ZM305 -137Q288 -135 276.5 -123Q265 -111 265 -93Q265 -72 279.5 -58.5Q294 -45 315 -45Q335 -45 349.5 -59Q364 -73 364 -95Q364 -111 357 -125Q350 -139 342 -152L313 -201H266Z" glyph-name="Ncommaaccent" horiz-adv-x="623" unicode="&#325;" /><glyph d="M550 0H492L149 488V0H73V614H148L475 147V614H550ZM446 784Q446 731 426.5 698Q407 665 370 665Q333 665 310 693Q287 721 260 721Q243 721 234.5 707Q226 693 226 668H177Q177 721 196.5 754Q216 787 253 787Q290 787 313 759Q336 731 364 731Q380 731 388.5 745Q397 759 398 784Z" glyph-name="Ntilde" horiz-adv-x="623" unicode="&#209;" /><glyph d="M592 307Q592 169 513.5 80Q435 -9 314 -9Q194 -9 115.5 80Q37 169 37 307Q37 446 115.5 534.5Q194 623 314 623Q435 623 513.5 534.5Q592 446 592 307ZM513 307Q513 414 458 483Q403 552 314 552Q226 552 171 483Q116 414 116 307Q116 200 171 131Q226 62 314 62Q403 62 458 131Q513 200 513 307Z" glyph-name="O" horiz-adv-x="629" unicode="O" /><glyph d="M780 544H482V350H750V280H482V71H780V0H335Q201 0 119 83.5Q37 167 37 307Q37 447 119 530.5Q201 614 335 614H780ZM405 71V544H337Q233 544 174.5 479Q116 414 116 307Q116 200 174.5 135.5Q233 71 337 71Z" glyph-name="OE" horiz-adv-x="830" unicode="&#338;" /><glyph d="M592 307Q592 169 513.5 80Q435 -9 314 -9Q194 -9 115.5 80Q37 169 37 307Q37 446 115.5 534.5Q194 623 314 623Q435 623 513.5 534.5Q592 446 592 307ZM513 307Q513 414 458 483Q403 552 314 552Q226 552 171 483Q116 414 116 307Q116 200 171 131Q226 62 314 62Q403 62 458 131Q513 200 513 307ZM270 668 350 785H437L346 668Z" glyph-name="Oacute" horiz-adv-x="629" unicode="&#211;" /><glyph d="M592 307Q592 169 513.5 80Q435 -9 314 -9Q194 -9 115.5 80Q37 169 37 307Q37 446 115.5 534.5Q194 623 314 623Q435 623 513.5 534.5Q592 446 592 307ZM513 307Q513 414 458 483Q403 552 314 552Q226 552 171 483Q116 414 116 307Q116 200 171 131Q226 62 314 62Q403 62 458 131Q513 200 513 307ZM314 666Q263 666 231 697Q199 728 199 786H256Q256 754 272.5 738Q289 722 314 722Q340 722 356.5 738Q373 754 373 786H430Q430 728 398 697Q366 666 314 666Z" glyph-name="Obreve" horiz-adv-x="629" unicode="&#334;" /><glyph d="M592 307Q592 169 513.5 80Q435 -9 314 -9Q194 -9 115.5 80Q37 169 37 307Q37 446 115.5 534.5Q194 623 314 623Q435 623 513.5 534.5Q592 446 592 307ZM513 307Q513 414 458 483Q403 552 314 552Q226 552 171 483Q116 414 116 307Q116 200 171 131Q226 62 314 62Q403 62 458 131Q513 200 513 307ZM441 669H373L314 740L255 669H187L279 791H349Z" glyph-name="Ocircumflex" horiz-adv-x="629" unicode="&#212;" /><glyph d="M592 307Q592 169 513.5 80Q435 -9 314 -9Q194 -9 115.5 80Q37 169 37 307Q37 446 115.5 534.5Q194 623 314 623Q435 623 513.5 534.5Q592 446 592 307ZM513 307Q513 414 458 483Q403 552 314 552Q226 552 171 483Q116 414 116 307Q116 200 171 131Q226 62 314 62Q403 62 458 131Q513 200 513 307ZM198 722Q198 741 212 754.5Q226 768 245 768Q264 768 277.5 754.5Q291 741 291 722Q291 703 277.5 689.5Q264 676 245 676Q226 676 212 689.5Q198 703 198 722ZM339 722Q339 741 352 754.5Q365 768 384 768Q403 768 417 754.5Q431 741 431 722Q431 703 417 689.5Q403 676 384 676Q365 676 352 689.5Q339 703 339 722Z" glyph-name="Odieresis" horiz-adv-x="629" unicode="&#214;" /><glyph d="M592 307Q592 169 513.5 80Q435 -9 314 -9Q194 -9 115.5 80Q37 169 37 307Q37 446 115.5 534.5Q194 623 314 623Q435 623 513.5 534.5Q592 446 592 307ZM513 307Q513 414 458 483Q403 552 314 552Q226 552 171 483Q116 414 116 307Q116 200 171 131Q226 62 314 62Q403 62 458 131Q513 200 513 307ZM280 668 188 785H275L355 668Z" glyph-name="Ograve" horiz-adv-x="629" unicode="&#210;" /><glyph d="M592 307Q592 169 513.5 80Q435 -9 314 -9Q194 -9 115.5 80Q37 169 37 307Q37 446 115.5 534.5Q194 623 314 623Q435 623 513.5 534.5Q592 446 592 307ZM513 307Q513 414 458 483Q403 552 314 552Q226 552 171 483Q116 414 116 307Q116 200 171 131Q226 62 314 62Q403 62 458 131Q513 200 513 307ZM225 668 292 785H358L290 668ZM348 668 414 785H481L413 668Z" glyph-name="Ohungarumlaut" horiz-adv-x="629" unicode="&#336;" /><glyph d="M592 307Q592 169 513.5 80Q435 -9 314 -9Q194 -9 115.5 80Q37 169 37 307Q37 446 115.5 534.5Q194 623 314 623Q435 623 513.5 534.5Q592 446 592 307ZM513 307Q513 414 458 483Q403 552 314 552Q226 552 171 483Q116 414 116 307Q116 200 171 131Q226 62 314 62Q403 62 458 131Q513 200 513 307ZM208 732H421V671H208Z" glyph-name="Omacron" horiz-adv-x="629" unicode="&#332;" /><glyph d="M121 307Q121 261 131 220.5Q141 180 160 149L444 507Q420 529 388.5 540.5Q357 552 319 552Q231 552 176 483Q121 414 121 307ZM319 62Q408 62 463 131Q518 200 518 307Q518 353 508.5 392Q499 431 481 462L198 105Q221 84 251.5 73Q282 62 319 62ZM319 -9Q271 -9 229 6Q187 21 153 48L103 -15L56 18L112 89Q79 130 60.5 186Q42 242 42 307Q42 446 120.5 534.5Q199 623 319 623Q368 623 411.5 607.5Q455 592 489 564L536 623L582 590L529 523Q561 482 579 427Q597 372 597 307Q597 169 518.5 80Q440 -9 319 -9Z" glyph-name="Oslash" horiz-adv-x="639" unicode="&#216;" /><glyph d="M121 307Q121 261 131 220.5Q141 180 160 149L444 507Q420 529 388.5 540.5Q357 552 319 552Q231 552 176 483Q121 414 121 307ZM319 62Q408 62 463 131Q518 200 518 307Q518 353 508.5 392Q499 431 481 462L198 105Q221 84 251.5 73Q282 62 319 62ZM319 -9Q271 -9 229 6Q187 21 153 48L103 -15L56 18L112 89Q79 130 60.5 186Q42 242 42 307Q42 446 120.5 534.5Q199 623 319 623Q368 623 411.5 607.5Q455 592 489 564L536 623L582 590L529 523Q561 482 579 427Q597 372 597 307Q597 169 518.5 80Q440 -9 319 -9ZM275 668 355 785H442L351 668Z" glyph-name="Oslashacute" horiz-adv-x="639" unicode="&#510;" /><glyph d="M592 307Q592 169 513.5 80Q435 -9 314 -9Q194 -9 115.5 80Q37 169 37 307Q37 446 115.5 534.5Q194 623 314 623Q435 623 513.5 534.5Q592 446 592 307ZM513 307Q513 414 458 483Q403 552 314 552Q226 552 171 483Q116 414 116 307Q116 200 171 131Q226 62 314 62Q403 62 458 131Q513 200 513 307ZM449 784Q449 731 429.5 698Q410 665 373 665Q336 665 313 693Q290 721 263 721Q246 721 237.5 707Q229 693 229 668H180Q180 721 199.5 754Q219 787 256 787Q293 787 316 759Q339 731 367 731Q383 731 391.5 745Q400 759 401 784Z" glyph-name="Otilde" horiz-adv-x="629" unicode="&#213;" /><glyph d="M152 246V0H73V614H303Q396 614 450.5 567Q505 520 505 430Q505 340 450.5 293Q396 246 303 246ZM301 316Q363 316 395 347.5Q427 379 427 430Q427 482 395 513.5Q363 545 301 545H152V316Z" glyph-name="P" horiz-adv-x="537" unicode="P" /><glyph d="M376 -93V-3Q362 -6 347 -7.5Q332 -9 316 -9Q195 -9 116 80Q37 169 37 307Q37 446 116 534.5Q195 623 316 623Q438 623 517 534.5Q596 446 596 307Q596 208 553.5 133Q511 58 442 21V-93ZM316 60Q332 60 347.5 61.5Q363 63 376 67V212H442V100Q479 131 498 183Q517 235 517 307Q517 414 461.5 483Q406 552 316 552Q226 552 171 483Q116 414 116 307Q116 200 171 130Q226 60 316 60Z" glyph-name="Q" horiz-adv-x="633" unicode="Q" /><glyph d="M152 327H299Q359 327 391.5 356Q424 385 424 436Q424 487 391.5 516Q359 545 299 545H152ZM73 614H301Q393 614 447.5 568.5Q502 523 502 436Q502 360 460 316.5Q418 273 346 263L527 0H437L261 260H152V0H73Z" glyph-name="R" horiz-adv-x="552" unicode="R" /><glyph d="M152 327H299Q359 327 391.5 356Q424 385 424 436Q424 487 391.5 516Q359 545 299 545H152ZM73 614H301Q393 614 447.5 568.5Q502 523 502 436Q502 360 460 316.5Q418 273 346 263L527 0H437L261 260H152V0H73ZM227 668 307 785H394L303 668Z" glyph-name="Racute" horiz-adv-x="552" unicode="&#340;" /><glyph d="M152 327H299Q359 327 391.5 356Q424 385 424 436Q424 487 391.5 516Q359 545 299 545H152ZM73 614H301Q393 614 447.5 568.5Q502 523 502 436Q502 360 460 316.5Q418 273 346 263L527 0H437L261 260H152V0H73ZM144 787H212L271 716L330 787H398L306 666H236Z" glyph-name="Rcaron" horiz-adv-x="552" unicode="&#344;" /><glyph d="M152 327H299Q359 327 391.5 356Q424 385 424 436Q424 487 391.5 516Q359 545 299 545H152ZM73 614H301Q393 614 447.5 568.5Q502 523 502 436Q502 360 460 316.5Q418 273 346 263L527 0H437L261 260H152V0H73ZM263 -137Q246 -135 234.5 -123Q223 -111 223 -93Q223 -72 237.5 -58.5Q252 -45 273 -45Q293 -45 307.5 -59Q322 -73 322 -95Q322 -111 315 -125Q308 -139 300 -152L271 -201H224Z" glyph-name="Rcommaaccent" horiz-adv-x="552" unicode="&#342;" /><glyph d="M97 160Q114 109 156 83.5Q198 58 254 58Q314 58 353.5 86.5Q393 115 393 165Q393 201 371.5 225Q350 249 297 262L188 291Q125 308 84 344Q43 380 43 449Q43 527 101.5 575Q160 623 247 623Q334 623 389 584.5Q444 546 465 483L392 462Q378 502 343 529Q308 556 248 556Q194 556 156 528.5Q118 501 118 455Q118 415 142.5 394.5Q167 374 214 361L318 334Q391 315 430 274.5Q469 234 469 169Q469 87 406.5 39Q344 -9 254 -9Q170 -9 107 29.5Q44 68 22 138Z" glyph-name="S" horiz-adv-x="509" unicode="S" /><glyph d="M97 160Q114 109 156 83.5Q198 58 254 58Q314 58 353.5 86.5Q393 115 393 165Q393 201 371.5 225Q350 249 297 262L188 291Q125 308 84 344Q43 380 43 449Q43 527 101.5 575Q160 623 247 623Q334 623 389 584.5Q444 546 465 483L392 462Q378 502 343 529Q308 556 248 556Q194 556 156 528.5Q118 501 118 455Q118 415 142.5 394.5Q167 374 214 361L318 334Q391 315 430 274.5Q469 234 469 169Q469 87 406.5 39Q344 -9 254 -9Q170 -9 107 29.5Q44 68 22 138ZM203 668 283 785H370L279 668Z" glyph-name="Sacute" horiz-adv-x="509" unicode="&#346;" /><glyph d="M97 160Q114 109 156 83.5Q198 58 254 58Q314 58 353.5 86.5Q393 115 393 165Q393 201 371.5 225Q350 249 297 262L188 291Q125 308 84 344Q43 380 43 449Q43 527 101.5 575Q160 623 247 623Q334 623 389 584.5Q444 546 465 483L392 462Q378 502 343 529Q308 556 248 556Q194 556 156 528.5Q118 501 118 455Q118 415 142.5 394.5Q167 374 214 361L318 334Q391 315 430 274.5Q469 234 469 169Q469 87 406.5 39Q344 -9 254 -9Q170 -9 107 29.5Q44 68 22 138ZM124 787H192L251 716L310 787H378L286 666H216Z" glyph-name="Scaron" horiz-adv-x="509" unicode="&#352;" /><glyph d="M97 160Q114 109 156 83.5Q198 58 254 58Q314 58 353.5 86.5Q393 115 393 165Q393 201 371.5 225Q350 249 297 262L188 291Q125 308 84 344Q43 380 43 449Q43 527 101.5 575Q160 623 247 623Q334 623 389 584.5Q444 546 465 483L392 462Q378 502 343 529Q308 556 248 556Q194 556 156 528.5Q118 501 118 455Q118 415 142.5 394.5Q167 374 214 361L318 334Q391 315 430 274.5Q469 234 469 169Q469 87 406.5 39Q344 -9 254 -9Q170 -9 107 29.5Q44 68 22 138ZM148 -183 214 -51H288L219 -183Z" glyph-name="Scedilla" horiz-adv-x="509" unicode="&#350;" /><glyph d="M97 160Q114 109 156 83.5Q198 58 254 58Q314 58 353.5 86.5Q393 115 393 165Q393 201 371.5 225Q350 249 297 262L188 291Q125 308 84 344Q43 380 43 449Q43 527 101.5 575Q160 623 247 623Q334 623 389 584.5Q444 546 465 483L392 462Q378 502 343 529Q308 556 248 556Q194 556 156 528.5Q118 501 118 455Q118 415 142.5 394.5Q167 374 214 361L318 334Q391 315 430 274.5Q469 234 469 169Q469 87 406.5 39Q344 -9 254 -9Q170 -9 107 29.5Q44 68 22 138ZM378 669H310L251 740L192 669H124L216 791H286Z" glyph-name="Scircumflex" horiz-adv-x="509" unicode="&#348;" /><glyph d="M97 160Q114 109 156 83.5Q198 58 254 58Q314 58 353.5 86.5Q393 115 393 165Q393 201 371.5 225Q350 249 297 262L188 291Q125 308 84 344Q43 380 43 449Q43 527 101.5 575Q160 623 247 623Q334 623 389 584.5Q444 546 465 483L392 462Q378 502 343 529Q308 556 248 556Q194 556 156 528.5Q118 501 118 455Q118 415 142.5 394.5Q167 374 214 361L318 334Q391 315 430 274.5Q469 234 469 169Q469 87 406.5 39Q344 -9 254 -9Q170 -9 107 29.5Q44 68 22 138ZM240 -137Q223 -135 211.5 -123Q200 -111 200 -93Q200 -72 214.5 -58.5Q229 -45 250 -45Q270 -45 284.5 -59Q299 -73 299 -95Q299 -111 292 -125Q285 -139 277 -152L248 -201H201Z" glyph-name="Scommaaccent" horiz-adv-x="509" unicode="&#536;" /><glyph d="M30 614H537V544H323V0H244V544H30Z" glyph-name="T" horiz-adv-x="567" unicode="T" /><glyph d="M323 284V0H244V284H131V351H244V544H30V614H537V544H323V351H436V284Z" glyph-name="Tbar" horiz-adv-x="567" unicode="&#358;" /><glyph d="M30 614H537V544H323V0H244V544H30ZM157 787H225L284 716L343 787H411L319 666H249Z" glyph-name="Tcaron" horiz-adv-x="567" unicode="&#356;" /><glyph d="M30 614H537V544H323V0H244V544H30ZM277 -137Q260 -135 248.5 -123Q237 -111 237 -93Q237 -72 251.5 -58.5Q266 -45 287 -45Q307 -45 321.5 -59Q336 -73 336 -95Q336 -111 329 -125Q322 -139 314 -152L285 -201H238Z" glyph-name="Tcommaaccent" horiz-adv-x="567" unicode="&#354;" /><glyph d="M152 131V0H73V614H152V499H303Q396 499 450.5 452Q505 405 505 315Q505 225 450.5 178Q396 131 303 131ZM301 200Q363 200 395 232Q427 264 427 315Q427 367 395 398.5Q363 430 301 430H152V200Z" glyph-name="Thorn" horiz-adv-x="537" unicode="&#222;" /><glyph d="M303 -9Q199 -9 131 54.5Q63 118 63 244V614H141V253Q141 155 185 108Q229 61 303 61Q377 61 421 108Q465 155 465 253V614H544V243Q544 118 475.5 54.5Q407 -9 303 -9Z" glyph-name="U" horiz-adv-x="607" unicode="U" /><glyph d="M303 -9Q199 -9 131 54.5Q63 118 63 244V614H141V253Q141 155 185 108Q229 61 303 61Q377 61 421 108Q465 155 465 253V614H544V243Q544 118 475.5 54.5Q407 -9 303 -9ZM259 668 339 785H426L335 668Z" glyph-name="Uacute" horiz-adv-x="607" unicode="&#218;" /><glyph d="M303 -9Q199 -9 131 54.5Q63 118 63 244V614H141V253Q141 155 185 108Q229 61 303 61Q377 61 421 108Q465 155 465 253V614H544V243Q544 118 475.5 54.5Q407 -9 303 -9ZM303 666Q252 666 220 697Q188 728 188 786H245Q245 754 261.5 738Q278 722 303 722Q329 722 345.5 738Q362 754 362 786H419Q419 728 387 697Q355 666 303 666Z" glyph-name="Ubreve" horiz-adv-x="607" unicode="&#364;" /><glyph d="M303 -9Q199 -9 131 54.5Q63 118 63 244V614H141V253Q141 155 185 108Q229 61 303 61Q377 61 421 108Q465 155 465 253V614H544V243Q544 118 475.5 54.5Q407 -9 303 -9ZM430 669H362L303 740L244 669H176L268 791H338Z" glyph-name="Ucircumflex" horiz-adv-x="607" unicode="&#219;" /><glyph d="M303 -9Q199 -9 131 54.5Q63 118 63 244V614H141V253Q141 155 185 108Q229 61 303 61Q377 61 421 108Q465 155 465 253V614H544V243Q544 118 475.5 54.5Q407 -9 303 -9ZM187 722Q187 741 201 754.5Q215 768 234 768Q253 768 266.5 754.5Q280 741 280 722Q280 703 266.5 689.5Q253 676 234 676Q215 676 201 689.5Q187 703 187 722ZM328 722Q328 741 341 754.5Q354 768 373 768Q392 768 406 754.5Q420 741 420 722Q420 703 406 689.5Q392 676 373 676Q354 676 341 689.5Q328 703 328 722Z" glyph-name="Udieresis" horiz-adv-x="607" unicode="&#220;" /><glyph d="M303 -9Q199 -9 131 54.5Q63 118 63 244V614H141V253Q141 155 185 108Q229 61 303 61Q377 61 421 108Q465 155 465 253V614H544V243Q544 118 475.5 54.5Q407 -9 303 -9ZM269 668 177 785H264L344 668Z" glyph-name="Ugrave" horiz-adv-x="607" unicode="&#217;" /><glyph d="M303 -9Q199 -9 131 54.5Q63 118 63 244V614H141V253Q141 155 185 108Q229 61 303 61Q377 61 421 108Q465 155 465 253V614H544V243Q544 118 475.5 54.5Q407 -9 303 -9ZM214 668 281 785H347L279 668ZM337 668 403 785H470L402 668Z" glyph-name="Uhungarumlaut" horiz-adv-x="607" unicode="&#368;" /><glyph d="M303 -9Q199 -9 131 54.5Q63 118 63 244V614H141V253Q141 155 185 108Q229 61 303 61Q377 61 421 108Q465 155 465 253V614H544V243Q544 118 475.5 54.5Q407 -9 303 -9ZM197 732H410V671H197Z" glyph-name="Umacron" horiz-adv-x="607" unicode="&#362;" /><glyph d="M303 -9Q199 -9 131 54.5Q63 118 63 244V614H141V253Q141 155 185 108Q229 61 303 61Q377 61 421 108Q465 155 465 253V614H544V243Q544 160 515 109Q486 58 435 21Q382 -16 362.5 -48.5Q343 -81 343 -106Q343 -118 349.5 -125Q356 -132 366 -132Q376 -132 384 -128Q392 -124 403 -117V-167Q392 -175 379.5 -180.5Q367 -186 351 -186Q319 -186 301.5 -168Q284 -150 284 -119Q284 -91 298.5 -62Q313 -33 341 -6Q335 -7 322 -8Q309 -9 303 -9Z" glyph-name="Uogonek" horiz-adv-x="607" unicode="&#370;" /><glyph d="M303 -9Q199 -9 131 54.5Q63 118 63 244V614H141V253Q141 155 185 108Q229 61 303 61Q377 61 421 108Q465 155 465 253V614H544V243Q544 118 475.5 54.5Q407 -9 303 -9ZM390 734Q390 698 365 673Q340 648 303 648Q266 648 241 673Q216 698 216 734Q216 771 241 796Q266 821 303 821Q340 821 365 796Q390 771 390 734ZM348 734Q348 753 335 766.5Q322 780 303 780Q284 780 271 766.5Q258 753 258 734Q258 715 271 702Q284 689 303 689Q322 689 335 702Q348 715 348 734Z" glyph-name="Uring" horiz-adv-x="607" unicode="&#366;" /><glyph d="M303 -9Q199 -9 131 54.5Q63 118 63 244V614H141V253Q141 155 185 108Q229 61 303 61Q377 61 421 108Q465 155 465 253V614H544V243Q544 118 475.5 54.5Q407 -9 303 -9ZM438 784Q438 731 418.5 698Q399 665 362 665Q325 665 302 693Q279 721 252 721Q235 721 226.5 707Q218 693 218 668H169Q169 721 188.5 754Q208 787 245 787Q282 787 305 759Q328 731 356 731Q372 731 380.5 745Q389 759 390 784Z" glyph-name="Utilde" horiz-adv-x="607" unicode="&#360;" /><glyph d="M258 0 21 614H104L296 104L489 614H569L332 0Z" glyph-name="V" horiz-adv-x="590" unicode="V" /><glyph d="M416 614 546 126 672 614H748L585 0H513L384 479L253 0H182L19 614H97L223 126L353 614Z" glyph-name="W" horiz-adv-x="767" unicode="W" /><glyph d="M416 614 546 126 672 614H748L585 0H513L384 479L253 0H182L19 614H97L223 126L353 614ZM344 668 424 785H511L420 668Z" glyph-name="Wacute" horiz-adv-x="767" unicode="&#7810;" /><glyph d="M416 614 546 126 672 614H748L585 0H513L384 479L253 0H182L19 614H97L223 126L353 614ZM510 669H442L383 740L324 669H256L348 791H418Z" glyph-name="Wcircumflex" horiz-adv-x="767" unicode="&#372;" /><glyph d="M416 614 546 126 672 614H748L585 0H513L384 479L253 0H182L19 614H97L223 126L353 614ZM267 722Q267 741 281 754.5Q295 768 314 768Q333 768 346.5 754.5Q360 741 360 722Q360 703 346.5 689.5Q333 676 314 676Q295 676 281 689.5Q267 703 267 722ZM408 722Q408 741 421 754.5Q434 768 453 768Q472 768 486 754.5Q500 741 500 722Q500 703 486 689.5Q472 676 453 676Q434 676 421 689.5Q408 703 408 722Z" glyph-name="Wdieresis" horiz-adv-x="767" unicode="&#7812;" /><glyph d="M416 614 546 126 672 614H748L585 0H513L384 479L253 0H182L19 614H97L223 126L353 614ZM346 668 254 785H341L421 668Z" glyph-name="Wgrave" horiz-adv-x="767" unicode="&#7808;" /><glyph d="M323 314 541 0H451L277 250L104 0H17L234 312L25 614H115L279 375L445 614H532Z" glyph-name="X" horiz-adv-x="557" unicode="X" /><glyph d="M457 614H541L317 253V0H239V253L17 614H103L280 324Z" glyph-name="Y" horiz-adv-x="557" unicode="Y" /><glyph d="M457 614H541L317 253V0H239V253L17 614H103L280 324ZM235 668 315 785H402L311 668Z" glyph-name="Yacute" horiz-adv-x="557" unicode="&#221;" /><glyph d="M457 614H541L317 253V0H239V253L17 614H103L280 324ZM406 669H338L279 740L220 669H152L244 791H314Z" glyph-name="Ycircumflex" horiz-adv-x="557" unicode="&#374;" /><glyph d="M457 614H541L317 253V0H239V253L17 614H103L280 324ZM162 722Q162 741 176 754.5Q190 768 209 768Q228 768 241.5 754.5Q255 741 255 722Q255 703 241.5 689.5Q228 676 209 676Q190 676 176 689.5Q162 703 162 722ZM303 722Q303 741 316 754.5Q329 768 348 768Q367 768 381 754.5Q395 741 395 722Q395 703 381 689.5Q367 676 348 676Q329 676 316 689.5Q303 703 303 722Z" glyph-name="Ydieresis" horiz-adv-x="557" unicode="&#376;" /><glyph d="M457 614H541L317 253V0H239V253L17 614H103L280 324ZM244 668 152 785H239L319 668Z" glyph-name="Ygrave" horiz-adv-x="557" unicode="&#7922;" /><glyph d="M492 0H41V57L390 544H46V614H488V558L140 71H492Z" glyph-name="Z" horiz-adv-x="534" unicode="Z" /><glyph d="M492 0H41V57L390 544H46V614H488V558L140 71H492ZM243 668 323 785H410L319 668Z" glyph-name="Zacute" horiz-adv-x="534" unicode="&#377;" /><glyph d="M492 0H41V57L390 544H46V614H488V558L140 71H492ZM160 787H228L287 716L346 787H414L322 666H252Z" glyph-name="Zcaron" horiz-adv-x="534" unicode="&#381;" /><glyph d="M492 0H41V57L390 544H46V614H488V558L140 71H492ZM335 721Q335 702 320.5 687.5Q306 673 287 673Q268 673 253.5 687.5Q239 702 239 721Q239 741 253.5 755.5Q268 770 287 770Q306 770 320.5 755.5Q335 741 335 721Z" glyph-name="Zdotaccent" horiz-adv-x="534" unicode="&#379;" /><glyph d="M317 156Q307 181 277 196Q247 211 213 211Q173 211 140 192.5Q107 174 107 134Q107 94 140 74.5Q173 55 213 55Q247 55 277 70Q307 85 317 110ZM317 0V33Q304 20 272 6Q240 -8 200 -8Q133 -8 84 30Q35 68 35 134Q35 196 84.5 234.5Q134 273 205 273Q239 273 271 261.5Q303 250 317 237V293Q317 334 292.5 361Q268 388 220 388Q184 388 159.5 372.5Q135 357 124 327L56 346Q73 395 118.5 424Q164 453 222 453Q300 453 344.5 410.5Q389 368 389 296V0Z" glyph-name="a" horiz-adv-x="450" unicode="a" /><glyph d="M317 156Q307 181 277 196Q247 211 213 211Q173 211 140 192.5Q107 174 107 134Q107 94 140 74.5Q173 55 213 55Q247 55 277 70Q307 85 317 110ZM317 0V33Q304 20 272 6Q240 -8 200 -8Q133 -8 84 30Q35 68 35 134Q35 196 84.5 234.5Q134 273 205 273Q239 273 271 261.5Q303 250 317 237V293Q317 334 292.5 361Q268 388 220 388Q184 388 159.5 372.5Q135 357 124 327L56 346Q73 395 118.5 424Q164 453 222 453Q300 453 344.5 410.5Q389 368 389 296V0ZM191 516 271 650H349L260 516Z" glyph-name="aacute" horiz-adv-x="450" unicode="&#225;" /><glyph d="M317 156Q307 181 277 196Q247 211 213 211Q173 211 140 192.5Q107 174 107 134Q107 94 140 74.5Q173 55 213 55Q247 55 277 70Q307 85 317 110ZM317 0V33Q304 20 272 6Q240 -8 200 -8Q133 -8 84 30Q35 68 35 134Q35 196 84.5 234.5Q134 273 205 273Q239 273 271 261.5Q303 250 317 237V293Q317 334 292.5 361Q268 388 220 388Q184 388 159.5 372.5Q135 357 124 327L56 346Q73 395 118.5 424Q164 453 222 453Q300 453 344.5 410.5Q389 368 389 296V0ZM227 500Q177 500 145 533Q113 566 113 628H170Q170 594 184.5 574.5Q199 555 227 555Q255 555 269.5 574.5Q284 594 284 628H341Q341 566 309 533Q277 500 227 500Z" glyph-name="abreve" horiz-adv-x="450" unicode="&#259;" /><glyph d="M317 156Q307 181 277 196Q247 211 213 211Q173 211 140 192.5Q107 174 107 134Q107 94 140 74.5Q173 55 213 55Q247 55 277 70Q307 85 317 110ZM317 0V33Q304 20 272 6Q240 -8 200 -8Q133 -8 84 30Q35 68 35 134Q35 196 84.5 234.5Q134 273 205 273Q239 273 271 261.5Q303 250 317 237V293Q317 334 292.5 361Q268 388 220 388Q184 388 159.5 372.5Q135 357 124 327L56 346Q73 395 118.5 424Q164 453 222 453Q300 453 344.5 410.5Q389 368 389 296V0ZM356 509H291L229 597L167 509H102L194 645H264Z" glyph-name="acircumflex" horiz-adv-x="450" unicode="&#226;" /><glyph d="M171 516 251 650H329L240 516Z" glyph-name="acute" horiz-adv-x="500" unicode="&#180;" /><glyph d="M166 668 246 785H333L242 668Z" glyph-name="acute.cap" horiz-adv-x="500" /><glyph d="M317 156Q307 181 277 196Q247 211 213 211Q173 211 140 192.5Q107 174 107 134Q107 94 140 74.5Q173 55 213 55Q247 55 277 70Q307 85 317 110ZM317 0V33Q304 20 272 6Q240 -8 200 -8Q133 -8 84 30Q35 68 35 134Q35 196 84.5 234.5Q134 273 205 273Q239 273 271 261.5Q303 250 317 237V293Q317 334 292.5 361Q268 388 220 388Q184 388 159.5 372.5Q135 357 124 327L56 346Q73 395 118.5 424Q164 453 222 453Q300 453 344.5 410.5Q389 368 389 296V0ZM113 571Q113 591 127 604.5Q141 618 160 618Q179 618 192.5 604.5Q206 591 206 571Q206 552 192.5 538.5Q179 525 160 525Q141 525 127 538.5Q113 552 113 571ZM254 571Q254 591 267 604.5Q280 618 299 618Q318 618 332 604.5Q346 591 346 571Q346 552 332 538.5Q318 525 299 525Q280 525 267 538.5Q254 552 254 571Z" glyph-name="adieresis" horiz-adv-x="450" unicode="&#228;" /><glyph d="M220 388Q185 388 160 372.5Q135 357 124 327L56 346Q73 395 118 424Q163 453 221 453Q275 453 312 431Q349 409 365 372Q390 408 427.5 430.5Q465 453 512 453Q603 453 651 392Q699 331 699 235V208H385Q386 136 422 95.5Q458 55 514 55Q555 55 584.5 75.5Q614 96 625 133L689 114Q673 59 628 25Q583 -9 514 -9Q462 -9 420.5 13Q379 35 353 75Q328 41 288.5 16.5Q249 -8 194 -8Q128 -8 81.5 29Q35 66 35 128Q35 192 85 229Q135 266 206 266H316V293Q316 334 292 361Q268 388 220 388ZM513 389Q463 389 429 356Q395 323 387 265H624Q623 314 595.5 351.5Q568 389 513 389ZM200 55Q244 55 273.5 78Q303 101 316 136V207H211Q171 207 139 189Q107 171 107 132Q107 93 135 74Q163 55 200 55Z" glyph-name="ae" horiz-adv-x="733" unicode="&#230;" /><glyph d="M220 388Q185 388 160 372.5Q135 357 124 327L56 346Q73 395 118 424Q163 453 221 453Q275 453 312 431Q349 409 365 372Q390 408 427.5 430.5Q465 453 512 453Q603 453 651 392Q699 331 699 235V208H385Q386 136 422 95.5Q458 55 514 55Q555 55 584.5 75.5Q614 96 625 133L689 114Q673 59 628 25Q583 -9 514 -9Q462 -9 420.5 13Q379 35 353 75Q328 41 288.5 16.5Q249 -8 194 -8Q128 -8 81.5 29Q35 66 35 128Q35 192 85 229Q135 266 206 266H316V293Q316 334 292 361Q268 388 220 388ZM513 389Q463 389 429 356Q395 323 387 265H624Q623 314 595.5 351.5Q568 389 513 389ZM200 55Q244 55 273.5 78Q303 101 316 136V207H211Q171 207 139 189Q107 171 107 132Q107 93 135 74Q163 55 200 55ZM346 516 426 650H504L415 516Z" glyph-name="aeacute" horiz-adv-x="733" unicode="&#509;" /><glyph d="M317 156Q307 181 277 196Q247 211 213 211Q173 211 140 192.5Q107 174 107 134Q107 94 140 74.5Q173 55 213 55Q247 55 277 70Q307 85 317 110ZM317 0V33Q304 20 272 6Q240 -8 200 -8Q133 -8 84 30Q35 68 35 134Q35 196 84.5 234.5Q134 273 205 273Q239 273 271 261.5Q303 250 317 237V293Q317 334 292.5 361Q268 388 220 388Q184 388 159.5 372.5Q135 357 124 327L56 346Q73 395 118.5 424Q164 453 222 453Q300 453 344.5 410.5Q389 368 389 296V0ZM202 516 113 650H191L271 516Z" glyph-name="agrave" horiz-adv-x="450" unicode="&#224;" /><glyph d="M317 156Q307 181 277 196Q247 211 213 211Q173 211 140 192.5Q107 174 107 134Q107 94 140 74.5Q173 55 213 55Q247 55 277 70Q307 85 317 110ZM317 0V33Q304 20 272 6Q240 -8 200 -8Q133 -8 84 30Q35 68 35 134Q35 196 84.5 234.5Q134 273 205 273Q239 273 271 261.5Q303 250 317 237V293Q317 334 292.5 361Q268 388 220 388Q184 388 159.5 372.5Q135 357 124 327L56 346Q73 395 118.5 424Q164 453 222 453Q300 453 344.5 410.5Q389 368 389 296V0ZM123 591H336V530H123Z" glyph-name="amacron" horiz-adv-x="450" unicode="&#257;" /><glyph d="M170 471Q170 438 188.5 412Q207 386 232 360Q293 382 318.5 409Q344 436 344 478Q344 512 322.5 537Q301 562 258 562Q221 562 195.5 537.5Q170 513 170 471ZM241 54Q284 54 318 68.5Q352 83 377 108L200 291Q163 275 138.5 246.5Q114 218 114 172Q114 121 150 87.5Q186 54 241 54ZM419 64Q385 30 340 10.5Q295 -9 241 -9Q154 -9 98 42.5Q42 94 42 172Q42 232 76.5 270.5Q111 309 160 332Q132 364 115 396Q98 428 98 469Q98 538 146 580.5Q194 623 258 623Q338 623 377.5 579.5Q417 536 417 478Q417 424 380.5 383Q344 342 273 316L418 165Q433 194 443 228.5Q453 263 458 300L523 285Q517 240 501.5 197.5Q486 155 463 119L577 0H481Z" glyph-name="ampersand" horiz-adv-x="588" unicode="&amp;" /><glyph d="M389 0Q360 -49 350 -68.5Q340 -88 340 -106Q340 -119 346 -125.5Q352 -132 362 -132Q372 -132 380.5 -128Q389 -124 399 -117V-167Q389 -175 376 -180.5Q363 -186 347 -186Q315 -186 298 -168Q281 -150 281 -120Q281 -92 295.5 -64.5Q310 -37 333 0H316V33Q303 20 271.5 6Q240 -8 200 -8Q133 -8 84 30Q35 68 35 134Q35 196 84.5 234.5Q134 273 205 273Q239 273 270.5 261.5Q302 250 316 237V293Q316 334 292 361Q268 388 220 388Q184 388 159.5 372.5Q135 357 124 327L56 346Q73 395 118.5 424Q164 453 221 453Q299 453 344 410.5Q389 368 389 296ZM316 156Q307 181 277 196Q247 211 213 211Q173 211 140 192.5Q107 174 107 134Q107 94 140 74.5Q173 55 213 55Q247 55 277 70Q307 85 316 110Z" glyph-name="aogonek" horiz-adv-x="450" unicode="&#261;" /><glyph d="M79 370Q107 392 133.5 401Q160 410 185 410Q235 410 275 389.5Q315 369 364 369Q389 369 416 379.5Q443 390 473 412V351Q443 329 416 319Q389 309 364 309Q314 309 274 330Q234 351 185 351Q160 351 133.5 340.5Q107 330 79 308ZM79 245Q107 267 133.5 276.5Q160 286 185 286Q235 286 275 265Q315 244 364 244Q389 244 416 254Q443 264 473 287V226Q443 204 416 194.5Q389 185 364 185Q314 185 274 205.5Q234 226 185 226Q160 226 133.5 216Q107 206 79 184Z" glyph-name="approxequal" horiz-adv-x="551" unicode="&#8776;" /><glyph d="M62 370Q90 392 117 401Q144 410 169 410Q219 410 259 389.5Q299 369 348 369Q373 369 400 379.5Q427 390 457 412V351Q427 329 400 319Q373 309 348 309Q298 309 258 330Q218 351 169 351Q144 351 117 340.5Q90 330 62 308ZM62 245Q90 267 117 276.5Q144 286 169 286Q219 286 259 265Q299 244 348 244Q373 244 400 254Q427 264 457 287V226Q427 204 400 194.5Q373 185 348 185Q298 185 258 205.5Q218 226 169 226Q144 226 117 216Q90 206 62 184Z" glyph-name="approxequal.lt" horiz-adv-x="520" /><glyph d="M317 156Q307 181 277 196Q247 211 213 211Q173 211 140 192.5Q107 174 107 134Q107 94 140 74.5Q173 55 213 55Q247 55 277 70Q307 85 317 110ZM317 0V33Q304 20 272 6Q240 -8 200 -8Q133 -8 84 30Q35 68 35 134Q35 196 84.5 234.5Q134 273 205 273Q239 273 271 261.5Q303 250 317 237V293Q317 334 292.5 361Q268 388 220 388Q184 388 159.5 372.5Q135 357 124 327L56 346Q73 395 118.5 424Q164 453 222 453Q300 453 344.5 410.5Q389 368 389 296V0ZM314 580Q314 543 289 518.5Q264 494 227 494Q190 494 165 518.5Q140 543 140 580Q140 617 165 641.5Q190 666 227 666Q264 666 289 641.5Q314 617 314 580ZM272 580Q272 599 259 612Q246 625 227 625Q208 625 195 612Q182 599 182 580Q182 561 195 548Q208 535 227 535Q246 535 259 548Q272 561 272 580Z" glyph-name="aring" horiz-adv-x="450" unicode="&#229;" /><glyph d="M194 647 250 733H336L268 647ZM316 550Q316 519 290 497.5Q264 476 227 476Q190 476 164.5 497.5Q139 519 139 550Q139 581 164.5 602.5Q190 624 227 624Q264 624 290 602.5Q316 581 316 550ZM274 550Q274 566 260 576.5Q246 587 227 587Q208 587 194.5 576.5Q181 566 181 550Q181 534 194.5 524Q208 514 227 514Q246 514 260 524Q274 534 274 550ZM317 156Q307 181 277 196Q247 211 213 211Q173 211 140 192.5Q107 174 107 134Q107 94 140 74.5Q173 55 213 55Q247 55 277 70Q307 85 317 110ZM317 0V33Q304 20 272 6Q240 -8 200 -8Q133 -8 84 30Q35 68 35 134Q35 196 84.5 234.5Q134 273 205 273Q239 273 271 261.5Q303 250 317 237V293Q317 334 292.5 361Q268 388 220 388Q184 388 159.5 372.5Q135 357 124 327L56 346Q73 395 118.5 424Q164 453 222 453Q300 453 344.5 410.5Q389 368 389 296V0Z" glyph-name="aringacute" horiz-adv-x="450" unicode="&#507;" /><glyph d="M216 614 340 420H262L179 548L96 420H17L142 614Z" glyph-name="asciicircum" horiz-adv-x="357" unicode="^" /><glyph d="M378 335Q378 275 352.5 240.5Q327 206 281 206Q235 206 206 239Q177 272 146 272Q125 272 114 256Q103 240 103 210H40Q40 270 65.5 304Q91 338 137 338Q183 338 211.5 305Q240 272 272 272Q292 272 303.5 288.5Q315 305 315 335Z" glyph-name="asciitilde" horiz-adv-x="418" unicode="~" /><glyph d="M31 559 53 597 144 545V649H188V545L279 597L301 559L210 506L301 454L279 416L188 468V363H144V468L53 416L31 454L121 506Z" glyph-name="asterisk" horiz-adv-x="332" unicode="*" /><glyph d="M517 138Q512 108 522.5 96Q533 84 557 84Q610 84 646 133Q682 182 682 271Q682 379 605 444.5Q528 510 411 510Q271 510 182.5 418Q94 326 94 188Q94 29 197 -34.5Q300 -98 412 -98Q474 -98 524 -86.5Q574 -75 614 -58L629 -109Q592 -127 535 -140.5Q478 -154 412 -154Q267 -154 149.5 -72.5Q32 9 32 188Q32 344 137 455Q242 566 411 566Q558 566 650 481Q742 396 742 271Q742 149 681.5 89.5Q621 30 547 30Q512 30 484.5 45Q457 60 447 88Q432 63 403.5 47Q375 31 345 31Q282 31 247.5 74Q213 117 213 179Q213 260 263.5 325Q314 390 395 390Q429 390 452.5 375.5Q476 361 486 344L493 381H560ZM473 275Q465 297 445.5 312.5Q426 328 399 328Q345 328 313.5 282Q282 236 282 182Q282 142 302.5 117.5Q323 93 359 93Q390 93 412 110Q434 127 450 151Z" glyph-name="at" horiz-adv-x="774" unicode="@" /><glyph d="M517 230Q512 200 522.5 188Q533 176 557 176Q610 176 646 225Q682 274 682 363Q682 471 605 536.5Q528 602 411 602Q271 602 182.5 510Q94 418 94 280Q94 121 197 57.5Q300 -6 412 -6Q474 -6 524 5.5Q574 17 614 34L629 -17Q592 -35 535 -48.5Q478 -62 412 -62Q267 -62 149.5 19.5Q32 101 32 280Q32 436 137 547Q242 658 411 658Q558 658 650 573Q742 488 742 363Q742 241 681.5 181.5Q621 122 547 122Q512 122 484.5 137Q457 152 447 180Q432 155 403.5 139Q375 123 345 123Q282 123 247.5 166Q213 209 213 271Q213 352 263.5 417Q314 482 395 482Q429 482 452.5 467.5Q476 453 486 436L493 473H560ZM473 367Q465 389 445.5 404.5Q426 420 399 420Q345 420 313.5 374Q282 328 282 274Q282 234 302.5 209.5Q323 185 359 185Q390 185 412 202Q434 219 450 243Z" glyph-name="at.cap" horiz-adv-x="774" /><glyph d="M317 156Q307 181 277 196Q247 211 213 211Q173 211 140 192.5Q107 174 107 134Q107 94 140 74.5Q173 55 213 55Q247 55 277 70Q307 85 317 110ZM317 0V33Q304 20 272 6Q240 -8 200 -8Q133 -8 84 30Q35 68 35 134Q35 196 84.5 234.5Q134 273 205 273Q239 273 271 261.5Q303 250 317 237V293Q317 334 292.5 361Q268 388 220 388Q184 388 159.5 372.5Q135 357 124 327L56 346Q73 395 118.5 424Q164 453 222 453Q300 453 344.5 410.5Q389 368 389 296V0ZM360 633Q360 580 340.5 547.5Q321 515 284 515Q250 515 227 544Q204 573 180 573Q163 573 154.5 558Q146 543 146 518H98Q98 571 117.5 603.5Q137 636 174 636Q209 636 231.5 607Q254 578 278 578Q294 578 302.5 593Q311 608 312 633Z" glyph-name="atilde" horiz-adv-x="450" unicode="&#227;" /><glyph d="M142 0H66V650H142V392Q158 416 192 434.5Q226 453 267 453Q364 453 415.5 384Q467 315 467 222Q467 128 415.5 59.5Q364 -9 267 -9Q226 -9 192 9.5Q158 28 142 52ZM142 132Q159 98 190 78.5Q221 59 256 59Q319 59 355 105.5Q391 152 391 222Q391 292 355 338.5Q319 385 256 385Q221 385 190 365.5Q159 346 142 312Z" glyph-name="b" horiz-adv-x="502" unicode="b" /><glyph d="M328 -84H253L5 650H80Z" glyph-name="backslash" horiz-adv-x="333" unicode="\" /><glyph d="M328 -64H253L5 670H80Z" glyph-name="backslash.cap" horiz-adv-x="333" /><glyph d="M73 650H146V-84H73Z" glyph-name="bar" horiz-adv-x="219" unicode="|" /><glyph d="M73 670H146V-64H73Z" glyph-name="bar.cap" horiz-adv-x="219" /><glyph d="M175 21Q175 3 184.5 -6.5Q194 -16 211 -16H316V-84H212Q163 -84 132 -52.5Q101 -21 101 28V211Q101 229 92.5 238.5Q84 248 66 248H20V318H66Q84 318 92.5 327Q101 336 101 355V538Q101 587 132 618.5Q163 650 212 650H316V582H211Q194 582 184.5 572.5Q175 563 175 545V360Q175 332 163 313Q151 294 132 283Q151 272 163 253Q175 234 175 206Z" glyph-name="braceleft" horiz-adv-x="339" unicode="{" /><glyph d="M175 39Q175 21 184.5 12Q194 3 211 3H316V-66H212Q163 -66 132 -34.5Q101 -3 101 47V230Q101 248 92.5 257Q84 266 66 266H20V336H66Q84 336 92.5 345.5Q101 355 101 373V556Q101 606 132 637Q163 668 212 668H316V600H211Q194 600 184.5 591Q175 582 175 563V378Q175 350 163 331Q151 312 132 301Q151 290 163 271.5Q175 253 175 225Z" glyph-name="braceleft.cap" horiz-adv-x="339" /><glyph d="M164 206Q164 234 176 253Q188 272 207 283Q188 294 176 313Q164 332 164 360V545Q164 563 154.5 572.5Q145 582 128 582H23V650H127Q176 650 207 618.5Q238 587 238 538V355Q238 336 246.5 327Q255 318 273 318H319V248H273Q255 248 246.5 238.5Q238 229 238 211V28Q238 -21 207 -52.5Q176 -84 127 -84H23V-16H128Q145 -16 154.5 -6.5Q164 3 164 21Z" glyph-name="braceright" horiz-adv-x="339" unicode="}" /><glyph d="M164 225Q164 253 176 271.5Q188 290 207 301Q188 312 176 331Q164 350 164 378V563Q164 582 154.5 591Q145 600 128 600H23V668H127Q176 668 207 637Q238 606 238 556V373Q238 355 246.5 345.5Q255 336 273 336H319V266H273Q255 266 246.5 257Q238 248 238 230V47Q238 -3 207 -34.5Q176 -66 127 -66H23V3H128Q145 3 154.5 12Q164 21 164 39Z" glyph-name="braceright.cap" horiz-adv-x="339" /><glyph d="M145 -16H290V-84H73V650H290V582H145Z" glyph-name="bracketleft" horiz-adv-x="313" unicode="[" /><glyph d="M145 3H290V-66H73V668H290V600H145Z" glyph-name="bracketleft.cap" horiz-adv-x="313" /><glyph d="M168 582H23V650H240V-84H23V-16H168Z" glyph-name="bracketright" horiz-adv-x="313" unicode="]" /><glyph d="M168 600H23V668H240V-66H23V3H168Z" glyph-name="bracketright.cap" horiz-adv-x="313" /><glyph d="M250 500Q200 500 168 533Q136 566 136 628H193Q193 594 207.5 574.5Q222 555 250 555Q278 555 292.5 574.5Q307 594 307 628H364Q364 566 332 533Q300 500 250 500Z" glyph-name="breve" horiz-adv-x="500" unicode="&#728;" /><glyph d="M249 666Q198 666 166 697Q134 728 134 786H191Q191 754 207.5 738Q224 722 249 722Q275 722 291.5 738Q308 754 308 786H365Q365 728 333 697Q301 666 249 666Z" glyph-name="breve.cap" horiz-adv-x="500" /><glyph d="M308 261Q308 201 268 163Q228 125 171 125Q114 125 74.5 163Q35 201 35 261Q35 321 74.5 359Q114 397 171 397Q228 397 268 359Q308 321 308 261Z" glyph-name="bullet" horiz-adv-x="343" unicode="&#8226;" /><glyph d="M308 301Q308 241 268 203Q228 165 171 165Q114 165 74.5 203Q35 241 35 301Q35 361 74.5 399Q114 437 171 437Q228 437 268 399Q308 361 308 301Z" glyph-name="bullet.cap" horiz-adv-x="343" /><glyph d="M35 222Q35 325 91 389Q147 453 235 453Q302 453 346.5 419.5Q391 386 406 331L335 311Q327 346 301 366.5Q275 387 235 387Q178 387 144.5 340.5Q111 294 111 222Q111 150 144.5 103.5Q178 57 235 57Q275 57 301 77.5Q327 98 335 133L406 113Q391 58 346.5 24.5Q302 -9 235 -9Q147 -9 91 55Q35 119 35 222Z" glyph-name="c" horiz-adv-x="438" unicode="c" /><glyph d="M35 222Q35 325 91 389Q147 453 235 453Q302 453 346.5 419.5Q391 386 406 331L335 311Q327 346 301 366.5Q275 387 235 387Q178 387 144.5 340.5Q111 294 111 222Q111 150 144.5 103.5Q178 57 235 57Q275 57 301 77.5Q327 98 335 133L406 113Q391 58 346.5 24.5Q302 -9 235 -9Q147 -9 91 55Q35 119 35 222ZM201 516 281 650H359L270 516Z" glyph-name="cacute" horiz-adv-x="438" unicode="&#263;" /><glyph d="M285 510H215L123 646H188L250 559L312 646H377Z" glyph-name="caron" horiz-adv-x="500" unicode="&#711;" /><glyph d="M198 486 231 650H291L258 486Z" glyph-name="caron.Slovak" horiz-adv-x="500" /><glyph d="M123 787H191L250 716L309 787H377L285 666H215Z" glyph-name="caron.cap" horiz-adv-x="500" /><glyph d="M35 222Q35 325 91 389Q147 453 235 453Q302 453 346.5 419.5Q391 386 406 331L335 311Q327 346 301 366.5Q275 387 235 387Q178 387 144.5 340.5Q111 294 111 222Q111 150 144.5 103.5Q178 57 235 57Q275 57 301 77.5Q327 98 335 133L406 113Q391 58 346.5 24.5Q302 -9 235 -9Q147 -9 91 55Q35 119 35 222ZM276 510H206L114 646H179L241 559L303 646H368Z" glyph-name="ccaron" horiz-adv-x="438" unicode="&#269;" /><glyph d="M35 222Q35 325 91 389Q147 453 235 453Q302 453 346.5 419.5Q391 386 406 331L335 311Q327 346 301 366.5Q275 387 235 387Q178 387 144.5 340.5Q111 294 111 222Q111 150 144.5 103.5Q178 57 235 57Q275 57 301 77.5Q327 98 335 133L406 113Q391 58 346.5 24.5Q302 -9 235 -9Q147 -9 91 55Q35 119 35 222ZM138 -183 204 -51H278L209 -183Z" glyph-name="ccedilla" horiz-adv-x="438" unicode="&#231;" /><glyph d="M35 222Q35 325 91 389Q147 453 235 453Q302 453 346.5 419.5Q391 386 406 331L335 311Q327 346 301 366.5Q275 387 235 387Q178 387 144.5 340.5Q111 294 111 222Q111 150 144.5 103.5Q178 57 235 57Q275 57 301 77.5Q327 98 335 133L406 113Q391 58 346.5 24.5Q302 -9 235 -9Q147 -9 91 55Q35 119 35 222ZM368 509H303L241 597L179 509H114L206 645H276Z" glyph-name="ccircumflex" horiz-adv-x="438" unicode="&#265;" /><glyph d="M35 222Q35 325 91 389Q147 453 235 453Q302 453 346.5 419.5Q391 386 406 331L335 311Q327 346 301 366.5Q275 387 235 387Q178 387 144.5 340.5Q111 294 111 222Q111 150 144.5 103.5Q178 57 235 57Q275 57 301 77.5Q327 98 335 133L406 113Q391 58 346.5 24.5Q302 -9 235 -9Q147 -9 91 55Q35 119 35 222ZM289 578Q289 559 274.5 544.5Q260 530 241 530Q222 530 207.5 544.5Q193 559 193 578Q193 598 207.5 612Q222 626 241 626Q260 626 274.5 612Q289 598 289 578Z" glyph-name="cdotaccent" horiz-adv-x="438" unicode="&#267;" /><glyph d="M179 -183 245 -51H319L250 -183Z" glyph-name="cedilla" horiz-adv-x="500" unicode="&#184;" /><glyph d="M179 -183 245 -51H319L250 -183Z" glyph-name="cedilla.alt" horiz-adv-x="500" /><glyph d="M410 127Q397 78 363 45.5Q329 13 276 4V-87H207V3Q130 13 82.5 75.5Q35 138 35 232Q35 326 82.5 388.5Q130 451 207 461V548H276V460Q329 451 363 418.5Q397 386 410 337L341 317Q333 354 305.5 376Q278 398 238 398Q181 398 146 351Q111 304 111 232Q111 160 146 113Q181 66 238 66Q278 66 305.5 88Q333 110 341 147L410 127Z" glyph-name="cent" horiz-adv-x="446" unicode="&#162;" /><glyph d="M444 127Q431 78 397 45.5Q363 13 310 4V-87H241V3Q164 13 116.5 75.5Q69 138 69 232Q69 326 116.5 388.5Q164 451 241 461V548H310V460Q363 451 397 418.5Q431 386 444 337L375 317Q367 354 339.5 376Q312 398 272 398Q215 398 180 351Q145 304 145 232Q145 160 180 113Q215 66 272 66Q312 66 339.5 88Q367 110 375 147L444 127Z" glyph-name="cent.lt" horiz-adv-x="520" /><glyph d="M377 509H312L250 597L188 509H123L215 645H285Z" glyph-name="circumflex" horiz-adv-x="500" unicode="&#710;" /><glyph d="M377 669H309L250 740L191 669H123L215 791H285Z" glyph-name="circumflex.cap" horiz-adv-x="500" /><glyph d="M32 363Q32 386 48 402Q64 418 86 418Q108 418 123.5 402Q139 386 139 363Q139 340 123.5 324.5Q108 309 86 309Q64 309 48 324.5Q32 340 32 363ZM32 49Q32 72 48 88Q64 104 86 104Q108 104 123.5 88Q139 72 139 49Q139 26 123.5 10.5Q108 -5 86 -5Q64 -5 48 10.5Q32 26 32 49Z" glyph-name="colon" horiz-adv-x="171" unicode=":" /><glyph d="M76 363Q76 386 92 402Q108 418 130 418Q152 418 167.5 402Q183 386 183 363Q183 340 167.5 324.5Q152 309 130 309Q108 309 92 324.5Q76 340 76 363ZM76 49Q76 72 92 88Q108 104 130 104Q152 104 167.5 88Q183 72 183 49Q183 26 167.5 10.5Q152 -5 130 -5Q108 -5 92 10.5Q76 26 76 49Z" glyph-name="colon.tab" horiz-adv-x="260" /><glyph d="M76 -1Q57 2 44.5 14.5Q32 27 32 49Q32 72 48 87Q64 102 86 102Q108 102 123.5 87Q139 72 139 44Q139 28 132.5 11.5Q126 -5 117 -19L64 -107H13Z" glyph-name="comma" horiz-adv-x="171" unicode="," /><glyph d="M120 -1Q102 2 89.5 14.5Q77 27 77 49Q77 72 92.5 87Q108 102 130 102Q152 102 167.5 87Q183 72 183 44Q183 28 177 11.5Q171 -5 161 -19L108 -107H57Z" glyph-name="comma.tab" horiz-adv-x="260" /><glyph d="M243 -137Q226 -135 214.5 -123Q203 -111 203 -93Q203 -72 217.5 -58.5Q232 -45 253 -45Q273 -45 287.5 -59Q302 -73 302 -95Q302 -111 295 -125Q288 -139 280 -152L251 -201H204Z" glyph-name="commaaccent" horiz-adv-x="500" unicode="&#63171;" /><glyph d="M257 615Q275 613 286.5 600.5Q298 588 298 569Q298 548 283.5 534.5Q269 521 247 521Q226 521 211.5 535Q197 549 197 572Q197 588 203.5 603Q210 618 219 631L248 680H297Z" glyph-name="commaturn" horiz-adv-x="500" /><glyph d="M669 307Q669 170 576 80.5Q483 -9 353 -9Q223 -9 130 80.5Q37 170 37 307Q37 444 130 533.5Q223 623 353 623Q483 623 576 533.5Q669 444 669 307ZM630 307Q630 427 548 505.5Q466 584 353 584Q240 584 158 505.5Q76 427 76 307Q76 187 158 108.5Q240 30 353 30Q466 30 548 108.5Q630 187 630 307ZM250 309Q250 251 279.5 214.5Q309 178 357 178Q388 178 409.5 193.5Q431 209 441 237L509 215Q493 168 454.5 139Q416 110 357 110Q279 110 227.5 165Q176 220 176 309Q176 398 227.5 453Q279 508 357 508Q416 508 454.5 479Q493 450 509 403L441 381Q431 409 409.5 424.5Q388 440 357 440Q309 440 279.5 403.5Q250 367 250 309Z" glyph-name="copyright" horiz-adv-x="706" unicode="&#169;" /><glyph d="M360 312Q343 346 312 365.5Q281 385 246 385Q183 385 147 338.5Q111 292 111 222Q111 152 147 105.5Q183 59 246 59Q281 59 312 78.5Q343 98 360 132ZM360 52Q344 28 310 9.5Q276 -9 235 -9Q138 -9 86.5 59.5Q35 128 35 222Q35 315 86.5 384Q138 453 235 453Q276 453 310 434.5Q344 416 360 392V650H436V0H360Z" glyph-name="d" horiz-adv-x="502" unicode="d" /><glyph d="M187 502V295H129V502H30V558H129V650H187V558H286V502Z" glyph-name="dagger" horiz-adv-x="317" unicode="&#8224;" /><glyph d="M191 380V295H133V380H34V432H133V512H34V565H133V650H191V565H292V512H191V432H292V380Z" glyph-name="daggerdbl" horiz-adv-x="325" unicode="&#8225;" /><glyph d="M360 312Q343 346 312 365.5Q281 385 246 385Q183 385 147 338.5Q111 292 111 222Q111 152 147 105.5Q183 59 246 59Q281 59 312 78.5Q343 98 360 132ZM360 52Q344 28 310 9.5Q276 -9 235 -9Q138 -9 86.5 59.5Q35 128 35 222Q35 315 86.5 384Q138 453 235 453Q276 453 310 434.5Q344 416 360 392V650H436V0H360ZM489 486 522 650H582L549 486Z" glyph-name="dcaron" horiz-adv-x="502" unicode="&#271;" /><glyph d="M360 312Q343 346 312 365.5Q281 385 246 385Q183 385 147 338.5Q111 292 111 222Q111 152 147 105.5Q183 59 246 59Q281 59 312 78.5Q343 98 360 132ZM360 52Q344 28 310 9.5Q276 -9 235 -9Q138 -9 86.5 59.5Q35 128 35 222Q35 315 86.5 384Q138 453 235 453Q276 453 310 434.5Q344 416 360 392V511H252V565H360V650H436V565H492V511H436V0H360Z" glyph-name="dcroat" horiz-adv-x="502" unicode="&#273;" /><glyph d="M291 499Q291 448 255 411.5Q219 375 168 375Q117 375 81 411.5Q45 448 45 499Q45 550 81 586.5Q117 623 168 623Q219 623 255 586.5Q291 550 291 499ZM100 499Q100 471 120 451Q140 431 168 431Q196 431 216 451Q236 471 236 499Q236 527 216 547.5Q196 568 168 568Q140 568 120 547.5Q100 527 100 499Z" glyph-name="degree" horiz-adv-x="336" unicode="&#176;" /><glyph d="M133 571Q133 591 147 604.5Q161 618 180 618Q199 618 212.5 604.5Q226 591 226 571Q226 552 212.5 538.5Q199 525 180 525Q161 525 147 538.5Q133 552 133 571ZM274 571Q274 591 287 604.5Q300 618 319 618Q338 618 352 604.5Q366 591 366 571Q366 552 352 538.5Q338 525 319 525Q300 525 287 538.5Q274 552 274 571Z" glyph-name="dieresis" horiz-adv-x="500" unicode="&#168;" /><glyph d="M133 722Q133 741 147 754.5Q161 768 180 768Q199 768 212.5 754.5Q226 741 226 722Q226 703 212.5 689.5Q199 676 180 676Q161 676 147 689.5Q133 703 133 722ZM274 722Q274 741 287 754.5Q300 768 319 768Q338 768 352 754.5Q366 741 366 722Q366 703 352 689.5Q338 676 319 676Q300 676 287 689.5Q274 703 274 722Z" glyph-name="dieresis.cap" horiz-adv-x="500" /><glyph d="M220 458Q220 479 234.5 494Q249 509 270 509Q291 509 306 494Q321 479 321 458Q321 437 306 422Q291 407 270 407Q249 407 234.5 422Q220 437 220 458ZM73 328H467V266H73ZM220 136Q220 157 234.5 172Q249 187 270 187Q291 187 306 172Q321 157 321 136Q321 115 306 100Q291 85 270 85Q249 85 234.5 100Q220 115 220 136Z" glyph-name="divide" horiz-adv-x="540" unicode="&#247;" /><glyph d="M210 458Q210 479 224.5 494Q239 509 260 509Q280 509 295 494Q310 479 310 458Q310 437 295 422Q280 407 260 407Q239 407 224.5 422Q210 437 210 458ZM62 328H457V266H62ZM210 136Q210 157 224.5 172Q239 187 260 187Q280 187 295 172Q310 157 310 136Q310 115 295 100Q280 85 260 85Q239 85 224.5 100Q210 115 210 136Z" glyph-name="divide.lt" horiz-adv-x="520" /><glyph d="M210 -89V10Q144 17 95.5 52.5Q47 88 28 148L99 169Q115 121 153.5 97.5Q192 74 244 74Q300 74 336.5 100Q373 126 373 173Q373 207 352.5 229Q332 251 283 264L181 291Q122 307 82.5 341.5Q43 376 43 442Q43 510 92 554Q141 598 210 605V695H279V603Q342 593 381 558.5Q420 524 437 471L368 452Q355 491 323 516Q291 541 234 541Q183 541 149 515.5Q115 490 115 446Q115 409 138.5 389.5Q162 370 206 358L302 333Q371 314 407.5 275.5Q444 237 444 176Q444 107 396 63Q348 19 279 10V-89Z" glyph-name="dollar" horiz-adv-x="477" unicode="$" /><glyph d="M235 -89V10Q168 17 119.5 52.5Q71 88 53 148L123 169Q139 121 177.5 97.5Q216 74 269 74Q325 74 361 100Q397 126 397 173Q397 207 376.5 229Q356 251 307 264L206 291Q147 307 107.5 341.5Q68 376 68 442Q68 510 117 554Q166 598 235 605V695H303V603Q366 593 405.5 558.5Q445 524 462 471L393 452Q380 491 348 516Q316 541 259 541Q208 541 173.5 515.5Q139 490 139 446Q139 409 162.5 389.5Q186 370 230 358L327 333Q395 314 432 275.5Q469 237 469 176Q469 107 420.5 63Q372 19 303 10V-89Z" glyph-name="dollar.lt" horiz-adv-x="520" /><glyph d="M298 578Q298 559 283.5 544.5Q269 530 250 530Q231 530 216.5 544.5Q202 559 202 578Q202 598 216.5 612Q231 626 250 626Q269 626 283.5 612Q298 598 298 578Z" glyph-name="dotaccent" horiz-adv-x="500" unicode="&#729;" /><glyph d="M298 721Q298 702 283.5 687.5Q269 673 250 673Q231 673 216.5 687.5Q202 702 202 721Q202 741 216.5 755.5Q231 770 250 770Q269 770 283.5 755.5Q298 741 298 721Z" glyph-name="dotaccent.cap" horiz-adv-x="500" /><glyph d="M298 -108Q298 -128 283.5 -142Q269 -156 250 -156Q231 -156 216.5 -142Q202 -128 202 -108Q202 -88 216.5 -74Q231 -60 250 -60Q269 -60 283.5 -74Q298 -88 298 -108Z" glyph-name="dotbelow" horiz-adv-x="500" /><glyph d="M142 0H67V444H142Z" glyph-name="dotlessi" horiz-adv-x="209" unicode="&#305;" /><glyph d="M142 -48Q142 -116 105.5 -147.5Q69 -179 17 -179Q1 -179 -12.5 -176Q-26 -173 -36 -168L-19 -109Q-13 -111 -6.5 -113Q0 -115 8 -115Q36 -115 51.5 -99.5Q67 -84 67 -45V444H142Z" glyph-name="dotlessj" horiz-adv-x="207" unicode="&#567;" /><glyph d="M415 114Q399 59 354 25Q309 -9 240 -9Q150 -9 92.5 55Q35 119 35 221Q35 320 91 386.5Q147 453 237 453Q328 453 376 392Q424 331 424 235V208H110Q111 137 147.5 96Q184 55 240 55Q281 55 310.5 75.5Q340 96 352 133ZM238 389Q188 389 154 356Q120 323 112 265H348Q347 314 320 351.5Q293 389 238 389Z" glyph-name="e" horiz-adv-x="457" unicode="e" /><glyph d="M415 114Q399 59 354 25Q309 -9 240 -9Q150 -9 92.5 55Q35 119 35 221Q35 320 91 386.5Q147 453 237 453Q328 453 376 392Q424 331 424 235V208H110Q111 137 147.5 96Q184 55 240 55Q281 55 310.5 75.5Q340 96 352 133ZM238 389Q188 389 154 356Q120 323 112 265H348Q347 314 320 351.5Q293 389 238 389ZM201 516 281 650H359L270 516Z" glyph-name="eacute" horiz-adv-x="457" unicode="&#233;" /><glyph d="M415 114Q399 59 354 25Q309 -9 240 -9Q150 -9 92.5 55Q35 119 35 221Q35 320 91 386.5Q147 453 237 453Q328 453 376 392Q424 331 424 235V208H110Q111 137 147.5 96Q184 55 240 55Q281 55 310.5 75.5Q340 96 352 133ZM238 389Q188 389 154 356Q120 323 112 265H348Q347 314 320 351.5Q293 389 238 389ZM241 500Q191 500 159 533Q127 566 127 628H184Q184 594 198.5 574.5Q213 555 241 555Q269 555 283.5 574.5Q298 594 298 628H355Q355 566 323 533Q291 500 241 500Z" glyph-name="ebreve" horiz-adv-x="457" unicode="&#277;" /><glyph d="M415 114Q399 59 354 25Q309 -9 240 -9Q150 -9 92.5 55Q35 119 35 221Q35 320 91 386.5Q147 453 237 453Q328 453 376 392Q424 331 424 235V208H110Q111 137 147.5 96Q184 55 240 55Q281 55 310.5 75.5Q340 96 352 133ZM238 389Q188 389 154 356Q120 323 112 265H348Q347 314 320 351.5Q293 389 238 389ZM276 510H206L114 646H179L241 559L303 646H368Z" glyph-name="ecaron" horiz-adv-x="457" unicode="&#283;" /><glyph d="M415 114Q399 59 354 25Q309 -9 240 -9Q150 -9 92.5 55Q35 119 35 221Q35 320 91 386.5Q147 453 237 453Q328 453 376 392Q424 331 424 235V208H110Q111 137 147.5 96Q184 55 240 55Q281 55 310.5 75.5Q340 96 352 133ZM238 389Q188 389 154 356Q120 323 112 265H348Q347 314 320 351.5Q293 389 238 389ZM367 509H302L240 597L178 509H113L205 645H275Z" glyph-name="ecircumflex" horiz-adv-x="457" unicode="&#234;" /><glyph d="M415 114Q399 59 354 25Q309 -9 240 -9Q150 -9 92.5 55Q35 119 35 221Q35 320 91 386.5Q147 453 237 453Q328 453 376 392Q424 331 424 235V208H110Q111 137 147.5 96Q184 55 240 55Q281 55 310.5 75.5Q340 96 352 133ZM238 389Q188 389 154 356Q120 323 112 265H348Q347 314 320 351.5Q293 389 238 389ZM125 571Q125 591 139 604.5Q153 618 172 618Q191 618 204.5 604.5Q218 591 218 571Q218 552 204.5 538.5Q191 525 172 525Q153 525 139 538.5Q125 552 125 571ZM266 571Q266 591 279 604.5Q292 618 311 618Q330 618 344 604.5Q358 591 358 571Q358 552 344 538.5Q330 525 311 525Q292 525 279 538.5Q266 552 266 571Z" glyph-name="edieresis" horiz-adv-x="457" unicode="&#235;" /><glyph d="M415 114Q399 59 354 25Q309 -9 240 -9Q150 -9 92.5 55Q35 119 35 221Q35 320 91 386.5Q147 453 237 453Q328 453 376 392Q424 331 424 235V208H110Q111 137 147.5 96Q184 55 240 55Q281 55 310.5 75.5Q340 96 352 133ZM238 389Q188 389 154 356Q120 323 112 265H348Q347 314 320 351.5Q293 389 238 389ZM289 578Q289 559 274.5 544.5Q260 530 241 530Q222 530 207.5 544.5Q193 559 193 578Q193 598 207.5 612Q222 626 241 626Q260 626 274.5 612Q289 598 289 578Z" glyph-name="edotaccent" horiz-adv-x="457" unicode="&#279;" /><glyph d="M415 114Q399 59 354 25Q309 -9 240 -9Q150 -9 92.5 55Q35 119 35 221Q35 320 91 386.5Q147 453 237 453Q328 453 376 392Q424 331 424 235V208H110Q111 137 147.5 96Q184 55 240 55Q281 55 310.5 75.5Q340 96 352 133ZM238 389Q188 389 154 356Q120 323 112 265H348Q347 314 320 351.5Q293 389 238 389ZM210 516 121 650H199L279 516Z" glyph-name="egrave" horiz-adv-x="457" unicode="&#232;" /><glyph d="M243 -9Q155 -9 94.5 39.5Q34 88 34 167Q34 227 68.5 268.5Q103 310 154 323Q111 338 83.5 374.5Q56 411 56 461Q56 535 110.5 579Q165 623 243 623Q321 623 376 579Q431 535 431 461Q431 411 403 374.5Q375 338 333 323Q383 310 418 268.5Q453 227 453 167Q453 88 392.5 39.5Q332 -9 243 -9ZM243 356Q291 356 323.5 384Q356 412 356 457Q356 503 323.5 531Q291 559 243 559Q196 559 163.5 531Q131 503 131 457Q131 412 163.5 384Q196 356 243 356ZM243 55Q301 55 339 88Q377 121 377 173Q377 224 339 257Q301 290 243 290Q186 290 148 257Q110 224 110 173Q110 121 148 88Q186 55 243 55Z" glyph-name="eight" horiz-adv-x="487" unicode="8" /><glyph d="M261 -9Q171 -9 110 39.5Q49 88 49 167Q49 227 84 268.5Q119 310 170 323Q127 338 99 374.5Q71 411 71 461Q71 535 127 579Q183 623 261 623Q341 623 396.5 579Q452 535 452 461Q452 411 424 374.5Q396 338 353 323Q404 310 439 268.5Q474 227 474 167Q474 88 412.5 39.5Q351 -9 261 -9ZM261 356Q310 356 343.5 384Q377 412 377 457Q377 503 343.5 531Q310 559 261 559Q213 559 179.5 531Q146 503 146 457Q146 412 179.5 384Q213 356 261 356ZM261 55Q320 55 359.5 88Q399 121 399 173Q399 224 359.5 257Q320 290 261 290Q203 290 163.5 257Q124 224 124 173Q124 121 163.5 88Q203 55 261 55Z" glyph-name="eight.lt" horiz-adv-x="520" /><glyph d="M32 49Q32 72 48 88Q64 104 86 104Q108 104 123.5 88Q139 72 139 49Q139 26 123.5 10.5Q108 -5 86 -5Q64 -5 48 10.5Q32 26 32 49ZM224 49Q224 72 239.5 88Q255 104 277 104Q299 104 315 88Q331 72 331 49Q331 26 315 10.5Q299 -5 277 -5Q255 -5 239.5 10.5Q224 26 224 49ZM415 49Q415 72 431 88Q447 104 469 104Q491 104 506.5 88Q522 72 522 49Q522 26 506.5 10.5Q491 -5 469 -5Q447 -5 431 10.5Q415 26 415 49Z" glyph-name="ellipsis" horiz-adv-x="554" unicode="&#8230;" /><glyph d="M415 114Q399 59 354 25Q309 -9 240 -9Q150 -9 92.5 55Q35 119 35 221Q35 320 91 386.5Q147 453 237 453Q328 453 376 392Q424 331 424 235V208H110Q111 137 147.5 96Q184 55 240 55Q281 55 310.5 75.5Q340 96 352 133ZM238 389Q188 389 154 356Q120 323 112 265H348Q347 314 320 351.5Q293 389 238 389ZM135 591H348V530H135Z" glyph-name="emacron" horiz-adv-x="457" unicode="&#275;" /><glyph d="M40 292H806V231H40Z" glyph-name="emdash" horiz-adv-x="846" unicode="&#8212;" /><glyph d="M40 332H806V271H40Z" glyph-name="emdash.cap" horiz-adv-x="846" /><glyph d="M40 292H435V231H40Z" glyph-name="endash" horiz-adv-x="475" unicode="&#8211;" /><glyph d="M40 332H435V271H40Z" glyph-name="endash.cap" horiz-adv-x="475" /><glyph d="M353 279Q353 325 329 354.5Q305 384 255 384Q216 384 185 360.5Q154 337 142 301V0H67V444H142V388Q161 414 195.5 433.5Q230 453 273 453Q348 453 388.5 408Q429 363 429 291V-48Q429 -116 392.5 -147.5Q356 -179 303 -179Q288 -179 274 -176Q260 -173 250 -168L268 -109Q274 -111 280.5 -113Q287 -115 295 -115Q322 -115 337.5 -99.5Q353 -84 353 -45Z" glyph-name="eng" horiz-adv-x="489" unicode="&#331;" /><glyph d="M280 -3Q270 -6 259.5 -7.5Q249 -9 239 -9Q149 -9 92 55Q35 119 35 221Q35 320 91 386.5Q147 453 237 453Q328 453 376 392Q424 331 424 235V208H110Q111 137 147 96Q183 55 239 55Q280 55 309.5 75.5Q339 96 350 133L414 114Q407 88 393 67Q379 46 358 25Q323 -10 303 -42.5Q283 -75 283 -103Q283 -117 289.5 -124.5Q296 -132 307 -132Q317 -132 325.5 -128Q334 -124 344 -117V-167Q334 -175 321 -180.5Q308 -186 292 -186Q260 -186 242 -167Q224 -148 224 -118Q224 -88 239 -61Q254 -34 280 -3ZM238 389Q188 389 154 356Q120 323 112 265H348Q347 314 320 351.5Q293 389 238 389Z" glyph-name="eogonek" horiz-adv-x="457" unicode="&#281;" /><glyph d="M79 397H473V337H79ZM79 257H473V199H79Z" glyph-name="equal" horiz-adv-x="551" unicode="=" /><glyph d="M62 397H457V337H62ZM62 257H457V199H62Z" glyph-name="equal.lt" horiz-adv-x="520" /><glyph d="M239 -9Q148 -9 91.5 55Q35 119 35 220Q35 321 90.5 385.5Q146 450 231 450Q266 450 291.5 437.5Q317 425 334 406H337Q326 431 301.5 463Q277 495 243 529L139 494L121 541L201 568Q178 588 152.5 607.5Q127 627 101 646V650H199Q218 637 237 622.5Q256 608 273 592L358 620L375 573L312 552Q372 485 407.5 401.5Q443 318 443 226Q443 121 386 56Q329 -9 239 -9ZM367 220Q367 292 333 338Q299 384 239 384Q179 384 145 338Q111 292 111 220Q111 148 145 102.5Q179 57 239 57Q299 57 333 102.5Q367 148 367 220Z" glyph-name="eth" horiz-adv-x="478" unicode="&#240;" /><glyph d="M57 614H146L128 193H74ZM48 49Q48 72 63.5 88Q79 104 101 104Q123 104 139 88Q155 72 155 49Q155 26 139 10.5Q123 -5 101 -5Q79 -5 63.5 10.5Q48 26 48 49Z" glyph-name="exclam" horiz-adv-x="203" unicode="!" /><glyph d="M101 414Q79 414 63.5 430Q48 446 48 469Q48 492 63.5 507.5Q79 523 101 523Q123 523 139 507.5Q155 492 155 469Q155 446 139 430Q123 414 101 414ZM74 325H128L146 -96H57Z" glyph-name="exclamdown" horiz-adv-x="209" unicode="&#161;" /><glyph d="M101 510Q79 510 63.5 526Q48 542 48 565Q48 588 63.5 603.5Q79 619 101 619Q123 619 139 603.5Q155 588 155 565Q155 542 139 526Q123 510 101 510ZM74 421H128L146 0H57Z" glyph-name="exclamdown.cap" horiz-adv-x="203" /><glyph d="M279 582Q270 586 260.5 589Q251 592 238 592Q210 592 189.5 572.5Q169 553 169 513V444H269V380H169V0H95V380H20V444H95V518Q95 584 135 621.5Q175 659 231 659Q251 659 267 655Q283 651 296 644Z" glyph-name="f" horiz-adv-x="289" unicode="f" /><glyph d="M95 512Q95 578 134.5 615.5Q174 653 232 653Q250 653 266 649Q282 645 294 638L277 576Q268 580 258.5 583Q249 586 238 586Q208 586 188.5 566.5Q169 547 169 507V444H355V518Q355 584 395 621.5Q435 659 493 659Q511 659 526.5 655Q542 651 555 644L537 582Q529 586 519.5 589Q510 592 499 592Q469 592 449.5 572.5Q430 553 430 513V444H530V380H430V0H355V380H169V0H95V380H20V444H95V512Z" glyph-name="f_f" horiz-adv-x="550" unicode="&#64256;" /><glyph d="M279 582Q270 586 260.5 589Q251 592 238 592Q210 592 189.5 572.5Q169 553 169 513V444H269V380H169V0H95V380H20V444H95V518Q95 584 135 621.5Q175 659 231 659Q251 659 267 655Q283 651 296 644ZM443 578Q443 559 428.5 544.5Q414 530 394 530Q375 530 360.5 544.5Q346 559 346 578Q346 598 360.5 612Q375 626 394 626Q414 626 428.5 612Q443 598 443 578ZM432 0H357V444H432Z" glyph-name="fi" horiz-adv-x="498" unicode="&#64257;" /><glyph d="M237 330Q200 330 172.5 314Q145 298 128 277H66V614H402V544H132V359Q148 373 177.5 385.5Q207 398 244 398Q328 398 382.5 340Q437 282 437 194Q437 107 380 49Q323 -9 236 -9Q153 -9 99 35Q45 79 29 155L100 176Q112 122 145.5 90.5Q179 59 236 59Q291 59 327 98Q363 137 363 194Q363 251 328 290.5Q293 330 237 330Z" glyph-name="five" horiz-adv-x="469" unicode="5" /><glyph d="M261 330Q223 330 194.5 314Q166 298 148 277H84V614H431V544H149V358Q165 372 197 385Q229 398 268 398Q355 398 411 340Q467 282 467 194Q467 107 408 49Q349 -9 259 -9Q174 -9 118 35Q62 79 46 155L119 176Q131 122 166 90.5Q201 59 261 59Q318 59 355.5 98Q393 137 393 194Q393 251 356.5 290.5Q320 330 261 330Z" glyph-name="five.lt" horiz-adv-x="520" /><glyph d="M279 582Q270 586 260.5 589Q251 592 238 592Q210 592 189.5 572.5Q169 553 169 513V444H269V380H169V0H95V380H20V444H95V518Q95 584 135 621.5Q175 659 231 659Q251 659 267 655Q283 651 296 644ZM432 0H357V650H432Z" glyph-name="fl" horiz-adv-x="498" unicode="&#64258;" /><glyph d="M15 -177Q-4 -177 -19.5 -173.5Q-35 -170 -48 -165L-30 -101Q-20 -105 -10 -108Q0 -111 12 -111Q43 -111 60.5 -89Q78 -67 85 -30L140 281H68V344H151L175 480Q186 545 227 584Q268 623 331 623Q351 623 366.5 619.5Q382 616 395 611L378 547Q368 552 357.5 554.5Q347 557 334 557Q300 557 277.5 534.5Q255 512 248 474L225 344H322V281H214L158 -36Q147 -99 112 -138Q77 -177 15 -177Z" glyph-name="florin" horiz-adv-x="405" unicode="&#402;" /><glyph d="M100 -177Q81 -177 65.5 -173.5Q50 -170 37 -165L55 -101Q65 -105 75 -108Q85 -111 97 -111Q128 -111 145.5 -89Q163 -67 170 -30L225 281H153V344H236L260 480Q271 545 312 584Q353 623 416 623Q436 623 451.5 619.5Q467 616 480 611L463 547Q453 552 442.5 554.5Q432 557 419 557Q385 557 362.5 534.5Q340 512 333 474L310 344H407V281H299L243 -36Q232 -99 197 -138Q162 -177 100 -177Z" glyph-name="florin.lt" horiz-adv-x="520" /><glyph d="M109 205H305V353H378V205H486V139H378V0H305V139H22V195L258 614H338Z" glyph-name="four" horiz-adv-x="509" unicode="4" /><glyph d="M115 205H311V353H384V205H492V139H384V0H311V139H28V195L264 614H344Z" glyph-name="four.lt" horiz-adv-x="520" /><glyph d="M-53 0H-120L263 614H330Z" glyph-name="fraction" horiz-adv-x="210" unicode="&#8260;" /><glyph d="M358 317Q341 348 311 367Q281 386 245 386Q182 386 147 341.5Q112 297 112 228Q112 160 147 115.5Q182 71 245 71Q281 71 311 90Q341 109 358 140ZM358 63Q342 40 308.5 21.5Q275 3 234 3Q137 3 86 72Q35 141 35 228Q35 316 86 384.5Q137 453 234 453Q275 453 308.5 435Q342 417 358 394V444H434V35Q434 -74 376 -127Q318 -180 232 -180Q158 -180 109 -146.5Q60 -113 45 -54L115 -33Q125 -75 156 -95.5Q187 -116 232 -116Q292 -116 325 -79Q358 -42 358 30Z" glyph-name="g" horiz-adv-x="501" unicode="g" /><glyph d="M358 317Q341 348 311 367Q281 386 245 386Q182 386 147 341.5Q112 297 112 228Q112 160 147 115.5Q182 71 245 71Q281 71 311 90Q341 109 358 140ZM358 63Q342 40 308.5 21.5Q275 3 234 3Q137 3 86 72Q35 141 35 228Q35 316 86 384.5Q137 453 234 453Q275 453 308.5 435Q342 417 358 394V444H434V35Q434 -74 376 -127Q318 -180 232 -180Q158 -180 109 -146.5Q60 -113 45 -54L115 -33Q125 -75 156 -95.5Q187 -116 232 -116Q292 -116 325 -79Q358 -42 358 30ZM259 500Q209 500 177 533Q145 566 145 628H202Q202 594 216.5 574.5Q231 555 259 555Q287 555 301.5 574.5Q316 594 316 628H373Q373 566 341 533Q309 500 259 500Z" glyph-name="gbreve" horiz-adv-x="501" unicode="&#287;" /><glyph d="M358 317Q341 348 311 367Q281 386 245 386Q182 386 147 341.5Q112 297 112 228Q112 160 147 115.5Q182 71 245 71Q281 71 311 90Q341 109 358 140ZM358 63Q342 40 308.5 21.5Q275 3 234 3Q137 3 86 72Q35 141 35 228Q35 316 86 384.5Q137 453 234 453Q275 453 308.5 435Q342 417 358 394V444H434V35Q434 -74 376 -127Q318 -180 232 -180Q158 -180 109 -146.5Q60 -113 45 -54L115 -33Q125 -75 156 -95.5Q187 -116 232 -116Q292 -116 325 -79Q358 -42 358 30ZM386 509H321L259 597L197 509H132L224 645H294Z" glyph-name="gcircumflex" horiz-adv-x="501" unicode="&#285;" /><glyph d="M358 317Q341 348 311 367Q281 386 245 386Q182 386 147 341.5Q112 297 112 228Q112 160 147 115.5Q182 71 245 71Q281 71 311 90Q341 109 358 140ZM358 63Q342 40 308.5 21.5Q275 3 234 3Q137 3 86 72Q35 141 35 228Q35 316 86 384.5Q137 453 234 453Q275 453 308.5 435Q342 417 358 394V444H434V35Q434 -74 376 -127Q318 -180 232 -180Q158 -180 109 -146.5Q60 -113 45 -54L115 -33Q125 -75 156 -95.5Q187 -116 232 -116Q292 -116 325 -79Q358 -42 358 30ZM267 615Q285 613 296.5 600.5Q308 588 308 569Q308 548 293.5 534.5Q279 521 257 521Q236 521 221.5 535Q207 549 207 572Q207 588 213.5 603Q220 618 229 631L258 680H307Z" glyph-name="gcommaaccent" horiz-adv-x="501" unicode="&#291;" /><glyph d="M358 317Q341 348 311 367Q281 386 245 386Q182 386 147 341.5Q112 297 112 228Q112 160 147 115.5Q182 71 245 71Q281 71 311 90Q341 109 358 140ZM358 63Q342 40 308.5 21.5Q275 3 234 3Q137 3 86 72Q35 141 35 228Q35 316 86 384.5Q137 453 234 453Q275 453 308.5 435Q342 417 358 394V444H434V35Q434 -74 376 -127Q318 -180 232 -180Q158 -180 109 -146.5Q60 -113 45 -54L115 -33Q125 -75 156 -95.5Q187 -116 232 -116Q292 -116 325 -79Q358 -42 358 30ZM307 578Q307 559 292.5 544.5Q278 530 259 530Q240 530 225.5 544.5Q211 559 211 578Q211 598 225.5 612Q240 626 259 626Q278 626 292.5 612Q307 598 307 578Z" glyph-name="gdotaccent" horiz-adv-x="501" unicode="&#289;" /><glyph d="M342 367Q394 355 434 308.5Q474 262 474 190Q474 97 417.5 45.5Q361 -6 282 -6Q255 -6 230.5 0Q206 6 187 18L207 81Q223 71 240 65.5Q257 60 279 60Q335 60 368.5 96Q402 132 402 195Q402 258 360 294Q318 330 248 330H206V396H248Q296 396 325 423.5Q354 451 354 497Q354 539 326.5 566.5Q299 594 253 594Q196 594 168.5 556.5Q141 519 141 463V0H67V463Q67 549 116 604Q165 659 252 659Q336 659 381 613Q426 567 426 501Q426 449 401 414.5Q376 380 342 367Z" glyph-name="germandbls" horiz-adv-x="510" unicode="&#223;" /><glyph d="M260 516 171 650H249L329 516Z" glyph-name="grave" horiz-adv-x="500" unicode="`" /><glyph d="M258 668 166 785H253L333 668Z" glyph-name="grave.cap" horiz-adv-x="500" /><glyph d="M362 256 65 105V176L303 295L65 414V485L362 334Z" glyph-name="greater" horiz-adv-x="423" unicode="&gt;" /><glyph d="M408 256 111 105V176L349 295L111 414V485L408 334Z" glyph-name="greater.lt" horiz-adv-x="520" /><glyph d="M364 308 67 187V254L296 345L67 435V503L364 382ZM364 91H67V153H364Z" glyph-name="greaterequal" horiz-adv-x="427" unicode="&#8805;" /><glyph d="M408 308 111 187V254L340 345L111 435V503L408 382ZM408 91H111V153H408Z" glyph-name="greaterequal.lt" horiz-adv-x="520" /><glyph d="M117 74 25 222 117 370H187L95 222L187 74ZM262 74 170 222 262 370H332L240 222L332 74Z" glyph-name="guillemotleft" horiz-adv-x="357" unicode="&#171;" /><glyph d="M117 158 25 305 117 453H187L95 305L187 158ZM262 158 170 305 262 453H332L240 305L332 158Z" glyph-name="guillemotleft.cap" horiz-adv-x="357" /><glyph d="M170 74 262 222 170 370H240L332 222L240 74ZM25 74 117 222 25 370H95L187 222L95 74Z" glyph-name="guillemotright" horiz-adv-x="357" unicode="&#187;" /><glyph d="M170 158 262 305 170 453H240L332 305L240 158ZM25 158 117 305 25 453H95L187 305L95 158Z" glyph-name="guillemotright.cap" horiz-adv-x="357" /><glyph d="M117 74 25 222 117 370H190L98 222L190 74Z" glyph-name="guilsinglleft" horiz-adv-x="215" unicode="&#8249;" /><glyph d="M117 158 25 305 117 453H190L98 305L190 158Z" glyph-name="guilsinglleft.cap" horiz-adv-x="215" /><glyph d="M25 74 117 222 25 370H98L190 222L98 74Z" glyph-name="guilsinglright" horiz-adv-x="215" unicode="&#8250;" /><glyph d="M25 158 117 305 25 453H98L190 305L98 158Z" glyph-name="guilsinglright.cap" horiz-adv-x="215" /><glyph d="M67 650H142V388Q161 414 195.5 433.5Q230 453 273 453Q348 453 388.5 408Q429 363 429 291V0H353V279Q353 325 329 354.5Q305 384 255 384Q216 384 185 360.5Q154 337 142 301V0H67Z" glyph-name="h" horiz-adv-x="489" unicode="h" /><glyph d="M142 0H67V511H10V565H67V650H142V565H250V511H142V388Q161 414 195.5 433.5Q230 453 273 453Q348 453 388.5 408Q429 363 429 291V0H353V279Q353 325 329 354.5Q305 384 255 384Q216 384 185 360.5Q154 337 142 301Z" glyph-name="hbar" horiz-adv-x="489" unicode="&#295;" /><glyph d="M67 650H142V388Q161 414 195.5 433.5Q230 453 273 453Q348 453 388.5 408Q429 363 429 291V0H353V279Q353 325 329 354.5Q305 384 255 384Q216 384 185 360.5Q154 337 142 301V0H67ZM374 682H306L247 753L188 682H120L212 804H282Z" glyph-name="hcircumflex" horiz-adv-x="489" unicode="&#293;" /><glyph d="M125 516 191 650H256L188 516ZM244 516 311 650H375L307 516Z" glyph-name="hungarumlaut" horiz-adv-x="500" unicode="&#733;" /><glyph d="M122 668 189 785H255L187 668ZM245 668 311 785H378L310 668Z" glyph-name="hungarumlaut.cap" horiz-adv-x="500" /><glyph d="M40 296H281V226H40Z" glyph-name="hyphen" horiz-adv-x="321" unicode="-" /><glyph d="M40 336H281V266H40Z" glyph-name="hyphen.cap" horiz-adv-x="321" /><glyph d="M153 578Q153 559 138.5 544.5Q124 530 104 530Q85 530 70.5 544.5Q56 559 56 578Q56 598 70.5 612Q85 626 104 626Q124 626 138.5 612Q153 598 153 578ZM142 0H67V444H142Z" glyph-name="i" horiz-adv-x="209" unicode="i" /><glyph d="M142 0H67V444H142ZM65 516 145 650H223L134 516Z" glyph-name="iacute" horiz-adv-x="209" unicode="&#237;" /><glyph d="M105 500Q60 500 31.5 533Q3 566 3 628H58Q58 594 69 574.5Q80 555 105 555Q129 555 140 574.5Q151 594 151 628H206Q206 566 178 533Q150 500 105 500ZM142 0H67V444H142Z" glyph-name="ibreve" horiz-adv-x="209" unicode="&#301;" /><glyph d="M213 509H149L104 594L59 509H-4L70 645H139ZM142 0H67V444H142Z" glyph-name="icircumflex" horiz-adv-x="209" unicode="&#238;" /><glyph d="M-3 571Q-3 591 10.5 604.5Q24 618 43 618Q62 618 75.5 604.5Q89 591 89 571Q89 552 75.5 538.5Q62 525 43 525Q24 525 10.5 538.5Q-3 552 -3 571ZM121 571Q121 591 134 604.5Q147 618 166 618Q185 618 199 604.5Q213 591 213 571Q213 552 199 538.5Q185 525 166 525Q147 525 134 538.5Q121 552 121 571ZM142 0H67V444H142Z" glyph-name="idieresis" horiz-adv-x="209" unicode="&#239;" /><glyph d="M152 578Q152 559 137.5 544.5Q123 530 104 530Q85 530 70.5 544.5Q56 559 56 578Q56 598 70.5 612Q85 626 104 626Q123 626 137.5 612Q152 598 152 578ZM142 0H67V444H142Z" glyph-name="idotaccent" horiz-adv-x="209" /><glyph d="M142 0H67V444H142ZM74 516 -15 650H63L143 516Z" glyph-name="igrave" horiz-adv-x="209" unicode="&#236;" /><glyph d="M153 578Q153 559 138.5 544.5Q124 530 104 530Q85 530 70.5 544.5Q56 559 56 578Q56 598 70.5 612Q85 626 104 626Q124 626 138.5 612Q153 598 153 578ZM142 0H67V444H142ZM362 578Q362 559 347.5 544.5Q333 530 313 530Q294 530 279.5 544.5Q265 559 265 578Q265 598 279.5 612Q294 626 313 626Q333 626 347.5 612Q362 598 362 578ZM351 -48Q351 -116 314.5 -147.5Q278 -179 226 -179Q210 -179 196.5 -176Q183 -173 173 -168L190 -109Q196 -111 202.5 -113Q209 -115 217 -115Q245 -115 260.5 -99.5Q276 -84 276 -45V444H351Z" glyph-name="ij" horiz-adv-x="416" unicode="&#307;" /><glyph d="M16 591H193V530H16ZM142 0H67V444H142Z" glyph-name="imacron" horiz-adv-x="209" unicode="&#299;" /><glyph d="M153 578Q153 559 138.5 544.5Q124 530 104 530Q85 530 70.5 544.5Q56 559 56 578Q56 598 70.5 612Q85 626 104 626Q124 626 138.5 612Q153 598 153 578ZM142 0Q113 -49 103 -68.5Q93 -88 93 -106Q93 -119 99.5 -125.5Q106 -132 116 -132Q126 -132 134 -128Q142 -124 153 -117V-167Q142 -175 129 -180.5Q116 -186 101 -186Q68 -186 51 -168Q34 -150 34 -120Q34 -92 48.5 -64.5Q63 -37 86 0H67V444H142Z" glyph-name="iogonek" horiz-adv-x="209" unicode="&#303;" /><glyph d="M214 633Q214 580 197.5 547.5Q181 515 150 515Q121 515 102.5 543Q84 571 66 571Q53 571 46.5 557Q40 543 39 518H-7Q-7 571 9.5 603.5Q26 636 57 636Q86 636 105 608Q124 580 142 580Q155 580 161 594Q167 608 168 633ZM142 0H67V444H142Z" glyph-name="itilde" horiz-adv-x="209" unicode="&#297;" /><glyph d="M153 578Q153 559 138.5 544.5Q124 530 104 530Q85 530 70.5 544.5Q56 559 56 578Q56 598 70.5 612Q85 626 104 626Q124 626 138.5 612Q153 598 153 578ZM142 -48Q142 -116 105.5 -147.5Q69 -179 17 -179Q1 -179 -12.5 -176Q-26 -173 -36 -168L-19 -109Q-13 -111 -6.5 -113Q0 -115 8 -115Q36 -115 51.5 -99.5Q67 -84 67 -45V444H142Z" glyph-name="j" horiz-adv-x="207" unicode="j" /><glyph d="M213 509H149L104 594L59 509H-4L70 645H139ZM142 -48Q142 -116 105.5 -147.5Q69 -179 17 -179Q1 -179 -12.5 -176Q-26 -173 -36 -168L-19 -109Q-13 -111 -6.5 -113Q0 -115 8 -115Q36 -115 51.5 -99.5Q67 -84 67 -45V444H142Z" glyph-name="jcircumflex" horiz-adv-x="207" unicode="&#309;" /><glyph d="M190 205 142 159V0H67V650H142V247L345 444H444L244 252L451 0H359Z" glyph-name="k" horiz-adv-x="464" unicode="k" /><glyph d="M190 205 142 159V0H67V650H142V247L345 444H444L244 252L451 0H359ZM218 -137Q201 -135 189.5 -123Q178 -111 178 -93Q178 -72 192.5 -58.5Q207 -45 228 -45Q248 -45 262.5 -59Q277 -73 277 -95Q277 -111 270 -125Q263 -139 255 -152L226 -201H179Z" glyph-name="kcommaaccent" horiz-adv-x="464" unicode="&#311;" /><glyph d="M190 205 142 159V0H67V444H142V247L345 444H444L244 252L451 0H359Z" glyph-name="kgreenlandic" horiz-adv-x="464" unicode="&#312;" /><glyph d="M142 0H67V650H142Z" glyph-name="l" horiz-adv-x="209" unicode="l" /><glyph d="M142 0H67V650H142ZM66 695 146 812H233L142 695Z" glyph-name="lacute" horiz-adv-x="209" unicode="&#314;" /><glyph d="M142 0H67V650H142ZM196 486 229 650H289L256 486Z" glyph-name="lcaron" horiz-adv-x="209" unicode="&#318;" /><glyph d="M142 0H67V650H142ZM95 -137Q78 -135 66.5 -123Q55 -111 55 -93Q55 -72 69.5 -58.5Q84 -45 105 -45Q125 -45 139.5 -59Q154 -73 154 -95Q154 -111 147 -125Q140 -139 132 -152L103 -201H56Z" glyph-name="lcommaaccent" horiz-adv-x="209" unicode="&#316;" /><glyph d="M142 0H67V650H142ZM317 325Q317 306 302.5 291.5Q288 277 269 277Q250 277 235.5 291.5Q221 306 221 325Q221 345 235.5 359Q250 373 269 373Q288 373 302.5 359Q317 345 317 325Z" glyph-name="ldot" horiz-adv-x="332" unicode="&#320;" /><glyph d="M62 334 358 485V414L120 295L358 176V105L62 256Z" glyph-name="less" horiz-adv-x="423" unicode="&lt;" /><glyph d="M112 334 408 485V414L170 295L408 176V105L112 256Z" glyph-name="less.lt" horiz-adv-x="520" /><glyph d="M63 382 360 503V435L130 345L360 254V187L63 308ZM63 153H360V91H63Z" glyph-name="lessequal" horiz-adv-x="427" unicode="&#8804;" /><glyph d="M111 382 408 503V435L178 345L408 254V187L111 308ZM111 153H408V91H111Z" glyph-name="lessequal.lt" horiz-adv-x="520" /><glyph d="M86 0V310L30 275V342L86 378V650H161V414L221 453V385L161 346V0Z" glyph-name="lslash" horiz-adv-x="246" unicode="&#322;" /><glyph d="M382 382Q403 412 437 432.5Q471 453 517 453Q584 453 620.5 409.5Q657 366 657 294V0H581V282Q581 328 560.5 356.5Q540 385 497 385Q463 385 436 363.5Q409 342 399 306V0H324V282Q324 328 303.5 356.5Q283 385 240 385Q206 385 179 363.5Q152 342 142 306V0H67V444H142V392Q158 418 189.5 435.5Q221 453 262 453Q304 453 335 433Q366 413 382 382Z" glyph-name="m" horiz-adv-x="717" unicode="m" /><glyph d="M143 591H356V530H143Z" glyph-name="macron" horiz-adv-x="500" unicode="&#175;" /><glyph d="M143 732H356V671H143Z" glyph-name="macron.cap" horiz-adv-x="500" /><glyph d="M73 328H467V266H73Z" glyph-name="minus" horiz-adv-x="540" unicode="&#8722;" /><glyph d="M62 328H457V266H62Z" glyph-name="minus.lt" horiz-adv-x="520" /><glyph d="M71 416 114 458 234 336 356 458 399 416 277 295 399 173 356 130 234 252 114 130 71 173 193 295Z" glyph-name="multiply" horiz-adv-x="470" unicode="&#215;" /><glyph d="M96 416 139 458 259 336 381 458 423 416 302 295 423 173 381 130 259 252 139 130 96 173 218 295Z" glyph-name="multiply.lt" horiz-adv-x="520" /><glyph d="M67 444H142V388Q161 414 195.5 433.5Q230 453 273 453Q348 453 388.5 408Q429 363 429 291V0H353V279Q353 325 329 354.5Q305 384 255 384Q216 384 185 360.5Q154 337 142 301V0H67Z" glyph-name="n" horiz-adv-x="489" unicode="n" /><glyph d="M67 444H142V388Q161 414 195.5 433.5Q230 453 273 453Q348 453 388.5 408Q429 363 429 291V0H353V279Q353 325 329 354.5Q305 384 255 384Q216 384 185 360.5Q154 337 142 301V0H67ZM211 516 291 650H369L280 516Z" glyph-name="nacute" horiz-adv-x="489" unicode="&#324;" /><glyph d="M67 444H142V388Q161 414 195.5 433.5Q230 453 273 453Q348 453 388.5 408Q429 363 429 291V0H353V279Q353 325 329 354.5Q305 384 255 384Q216 384 185 360.5Q154 337 142 301V0H67ZM286 510H216L124 646H189L251 559L313 646H378Z" glyph-name="ncaron" horiz-adv-x="489" unicode="&#328;" /><glyph d="M67 444H142V388Q161 414 195.5 433.5Q230 453 273 453Q348 453 388.5 408Q429 363 429 291V0H353V279Q353 325 329 354.5Q305 384 255 384Q216 384 185 360.5Q154 337 142 301V0H67ZM244 -137Q227 -135 215.5 -123Q204 -111 204 -93Q204 -72 218.5 -58.5Q233 -45 254 -45Q274 -45 288.5 -59Q303 -73 303 -95Q303 -111 296 -125Q289 -139 281 -152L252 -201H205Z" glyph-name="ncommaaccent" horiz-adv-x="489" unicode="&#326;" /><glyph d="M373 418Q373 478 336 517Q299 556 240 556Q183 556 145.5 517Q108 478 108 418Q108 357 145.5 317.5Q183 278 240 278Q298 278 335.5 317Q373 356 373 418ZM117 143Q130 104 158.5 80Q187 56 232 56Q301 56 345.5 124Q390 192 390 291Q390 295 389.5 304.5Q389 314 389 318Q374 272 331 242.5Q288 213 234 213Q145 213 90 273.5Q35 334 35 417Q35 501 91 562Q147 623 241 623Q301 623 348.5 593Q396 563 424 506Q443 465 451.5 418.5Q460 372 460 318Q460 169 396 80Q332 -9 232 -9Q158 -9 112.5 26.5Q67 62 46 123Z" glyph-name="nine" horiz-adv-x="500" unicode="9" /><glyph d="M382 418Q382 478 344 517Q306 556 247 556Q189 556 150.5 517Q112 478 112 418Q112 357 150.5 317.5Q189 278 247 278Q306 278 344 317Q382 356 382 418ZM122 143Q134 104 163.5 80Q193 56 239 56Q308 56 353.5 124Q399 192 399 291Q399 295 398.5 304Q398 313 398 318Q382 272 338.5 242.5Q295 213 240 213Q150 213 94.5 273.5Q39 334 39 417Q39 501 96 562Q153 623 247 623Q308 623 356 593Q404 563 432 506Q452 465 460.5 418.5Q469 372 469 318Q469 169 404.5 80Q340 -9 239 -9Q164 -9 117.5 26.5Q71 62 51 122Z" glyph-name="nine.lt" horiz-adv-x="520" /><glyph glyph-name="nonmarkingreturn" horiz-adv-x="221" unicode="" /><glyph d="M233 199 166 107H107L174 199H79V256H216L276 338H79V395H317L385 488H444L376 395H473V338H335L275 256H473V199Z" glyph-name="notequal" horiz-adv-x="551" unicode="&#8800;" /><glyph d="M217 199 150 107H91L158 199H62V256H199L259 338H62V395H300L368 488H428L360 395H457V338H319L259 256H457V199Z" glyph-name="notequal.lt" horiz-adv-x="520" /><glyph d="M67 444H142V388Q161 414 195.5 433.5Q230 453 273 453Q348 453 388.5 408Q429 363 429 291V0H353V279Q353 325 329 354.5Q305 384 255 384Q216 384 185 360.5Q154 337 142 301V0H67ZM379 633Q379 580 359.5 547.5Q340 515 303 515Q269 515 246 544Q223 573 199 573Q182 573 173.5 558Q165 543 165 518H117Q117 571 136.5 603.5Q156 636 193 636Q228 636 250.5 607Q273 578 297 578Q313 578 321.5 593Q330 608 331 633Z" glyph-name="ntilde" horiz-adv-x="489" unicode="&#241;" /><glyph d="M376 379H235L200 235H341ZM327 176H186L144 0H77L119 176H23L36 235H133L167 379H65L77 438H181L223 614H291L249 438H390L432 614H499L457 438H552L540 379H443L409 235H511L499 176H395L353 0H285Z" glyph-name="numbersign" horiz-adv-x="576" unicode="#" /><glyph d="M443 222Q443 121 386 56Q329 -9 239 -9Q148 -9 91.5 56Q35 121 35 222Q35 323 91.5 388Q148 453 239 453Q329 453 386 388Q443 323 443 222ZM367 222Q367 294 333 340.5Q299 387 239 387Q179 387 145 340.5Q111 294 111 222Q111 150 145 103.5Q179 57 239 57Q299 57 333 103.5Q367 150 367 222Z" glyph-name="o" horiz-adv-x="478" unicode="o" /><glyph d="M443 222Q443 121 386 56Q329 -9 239 -9Q148 -9 91.5 56Q35 121 35 222Q35 323 91.5 388Q148 453 239 453Q329 453 386 388Q443 323 443 222ZM367 222Q367 294 333 340.5Q299 387 239 387Q179 387 145 340.5Q111 294 111 222Q111 150 145 103.5Q179 57 239 57Q299 57 333 103.5Q367 150 367 222ZM199 516 279 650H357L268 516Z" glyph-name="oacute" horiz-adv-x="478" unicode="&#243;" /><glyph d="M443 222Q443 121 386 56Q329 -9 239 -9Q148 -9 91.5 56Q35 121 35 222Q35 323 91.5 388Q148 453 239 453Q329 453 386 388Q443 323 443 222ZM367 222Q367 294 333 340.5Q299 387 239 387Q179 387 145 340.5Q111 294 111 222Q111 150 145 103.5Q179 57 239 57Q299 57 333 103.5Q367 150 367 222ZM239 500Q189 500 157 533Q125 566 125 628H182Q182 594 196.5 574.5Q211 555 239 555Q267 555 281.5 574.5Q296 594 296 628H353Q353 566 321 533Q289 500 239 500Z" glyph-name="obreve" horiz-adv-x="478" unicode="&#335;" /><glyph d="M443 222Q443 121 386 56Q329 -9 239 -9Q148 -9 91.5 56Q35 121 35 222Q35 323 91.5 388Q148 453 239 453Q329 453 386 388Q443 323 443 222ZM367 222Q367 294 333 340.5Q299 387 239 387Q179 387 145 340.5Q111 294 111 222Q111 150 145 103.5Q179 57 239 57Q299 57 333 103.5Q367 150 367 222ZM366 509H301L239 597L177 509H112L204 645H274Z" glyph-name="ocircumflex" horiz-adv-x="478" unicode="&#244;" /><glyph d="M443 222Q443 121 386 56Q329 -9 239 -9Q148 -9 91.5 56Q35 121 35 222Q35 323 91.5 388Q148 453 239 453Q329 453 386 388Q443 323 443 222ZM367 222Q367 294 333 340.5Q299 387 239 387Q179 387 145 340.5Q111 294 111 222Q111 150 145 103.5Q179 57 239 57Q299 57 333 103.5Q367 150 367 222ZM123 571Q123 591 137 604.5Q151 618 170 618Q189 618 202.5 604.5Q216 591 216 571Q216 552 202.5 538.5Q189 525 170 525Q151 525 137 538.5Q123 552 123 571ZM264 571Q264 591 277 604.5Q290 618 309 618Q328 618 342 604.5Q356 591 356 571Q356 552 342 538.5Q328 525 309 525Q290 525 277 538.5Q264 552 264 571Z" glyph-name="odieresis" horiz-adv-x="478" unicode="&#246;" /><glyph d="M568 55Q610 55 639 75.5Q668 96 680 133L743 114Q727 59 682 25Q637 -9 568 -9Q514 -9 471 15Q428 39 402 82Q377 39 334.5 15Q292 -9 239 -9Q148 -9 91.5 56Q35 121 35 222Q35 323 91.5 388Q148 453 239 453Q293 453 335 428Q377 403 402 360Q428 403 470 428Q512 453 567 453Q658 453 706 392Q754 331 754 235V208H439Q440 137 476.5 96Q513 55 568 55ZM567 389Q517 389 483.5 355.5Q450 322 442 265H678Q677 314 650 351.5Q623 389 567 389ZM367 222Q367 294 333 340.5Q299 387 239 387Q179 387 145 340.5Q111 294 111 222Q111 150 145 103.5Q179 57 239 57Q299 57 333 103.5Q367 150 367 222Z" glyph-name="oe" horiz-adv-x="787" unicode="&#339;" /><glyph d="M305 4Q275 -45 264 -66.5Q253 -88 253 -106Q253 -119 259 -125.5Q265 -132 275 -132Q285 -132 293.5 -128Q302 -124 312 -117V-167Q302 -175 289 -180.5Q276 -186 260 -186Q228 -186 211 -168Q194 -150 194 -120Q194 -92 209 -64Q224 -36 249 4Z" glyph-name="ogonek" horiz-adv-x="500" unicode="&#731;" /><glyph d="M443 222Q443 121 386 56Q329 -9 239 -9Q148 -9 91.5 56Q35 121 35 222Q35 323 91.5 388Q148 453 239 453Q329 453 386 388Q443 323 443 222ZM367 222Q367 294 333 340.5Q299 387 239 387Q179 387 145 340.5Q111 294 111 222Q111 150 145 103.5Q179 57 239 57Q299 57 333 103.5Q367 150 367 222ZM208 516 119 650H197L277 516Z" glyph-name="ograve" horiz-adv-x="478" unicode="&#242;" /><glyph d="M443 222Q443 121 386 56Q329 -9 239 -9Q148 -9 91.5 56Q35 121 35 222Q35 323 91.5 388Q148 453 239 453Q329 453 386 388Q443 323 443 222ZM367 222Q367 294 333 340.5Q299 387 239 387Q179 387 145 340.5Q111 294 111 222Q111 150 145 103.5Q179 57 239 57Q299 57 333 103.5Q367 150 367 222ZM144 516 210 650H275L207 516ZM263 516 330 650H394L326 516Z" glyph-name="ohungarumlaut" horiz-adv-x="478" unicode="&#337;" /><glyph d="M443 222Q443 121 386 56Q329 -9 239 -9Q148 -9 91.5 56Q35 121 35 222Q35 323 91.5 388Q148 453 239 453Q329 453 386 388Q443 323 443 222ZM367 222Q367 294 333 340.5Q299 387 239 387Q179 387 145 340.5Q111 294 111 222Q111 150 145 103.5Q179 57 239 57Q299 57 333 103.5Q367 150 367 222ZM133 591H346V530H133Z" glyph-name="omacron" horiz-adv-x="478" unicode="&#333;" /><glyph d="M254 0H177V520L25 442V522L207 615H254Z" glyph-name="one" horiz-adv-x="329" unicode="1" /><glyph d="M77 70H252V520L80 432V512L282 615H329V70H483V0H77Z" glyph-name="one.lt" horiz-adv-x="520" /><glyph d="M191 282H129V541L41 497V561L149 615H191ZM140 0H73L502 614H569ZM560 237Q560 257 547.5 269Q535 281 515 281Q493 281 478 265.5Q463 250 459 228L402 245Q411 285 441.5 311.5Q472 338 516 338Q566 338 594.5 310.5Q623 283 623 239Q623 207 603.5 181.5Q584 156 559 130L485 54H626V0H400V43L511 160Q534 184 547 201.5Q560 219 560 237Z" glyph-name="onehalf" horiz-adv-x="682" unicode="&#189;" /><glyph d="M191 282H129V541L41 497V561L149 615H191ZM140 0H73L502 614H569ZM429 122H510V189H566V122H618V69H566V0H510V69H360V116L474 333H536Z" glyph-name="onequarter" horiz-adv-x="667" unicode="&#188;" /><glyph d="M170 282H107V541L19 497V561L128 615H170Z" glyph-name="onesuperior" horiz-adv-x="221" unicode="&#185;" /><glyph d="M199 424Q193 437 175.5 446Q158 455 138 455Q116 455 97 444Q78 433 78 411Q78 388 97 377Q116 366 138 366Q158 366 175.5 375Q193 384 199 397ZM199 321V342Q191 333 169.5 324.5Q148 316 123 316Q78 316 45.5 340.5Q13 365 13 410Q13 452 46 478Q79 504 126 504Q148 504 168.5 496Q189 488 199 481V514Q199 537 184 553Q169 569 140 569Q120 569 105.5 560Q91 551 84 533L28 550Q39 583 69.5 603.5Q100 624 142 624Q198 624 231 594Q264 564 264 513V321Z" glyph-name="ordfeminine" horiz-adv-x="292" unicode="&#170;" /><glyph d="M296 469Q296 401 257 357.5Q218 314 155 314Q92 314 52.5 357.5Q13 401 13 469Q13 537 52.5 580.5Q92 624 155 624Q218 624 257 580.5Q296 537 296 469ZM228 469Q228 512 208.5 539Q189 566 155 566Q121 566 101.5 539Q82 512 82 469Q82 426 101.5 399.5Q121 373 155 373Q189 373 208.5 399.5Q228 426 228 469Z" glyph-name="ordmasculine" horiz-adv-x="310" unicode="&#186;" /><glyph d="M115 222Q115 194 120.5 169Q126 144 136 124L320 361Q304 374 285 380.5Q266 387 244 387Q184 387 149.5 340.5Q115 294 115 222ZM244 57Q304 57 338.5 103.5Q373 150 373 222Q373 250 367.5 275.5Q362 301 352 321L167 83Q183 70 202 63.5Q221 57 244 57ZM244 -9Q210 -9 179.5 1Q149 11 125 29L81 -28L40 1L89 64Q66 94 53 134.5Q40 175 40 222Q40 323 96.5 388Q153 453 244 453Q278 453 307.5 443.5Q337 434 362 416L403 469L444 440L398 381Q422 350 435 310Q448 270 448 222Q448 121 391 56Q334 -9 244 -9Z" glyph-name="oslash" horiz-adv-x="488" unicode="&#248;" /><glyph d="M115 222Q115 194 120.5 169Q126 144 136 124L320 361Q304 374 285 380.5Q266 387 244 387Q184 387 149.5 340.5Q115 294 115 222ZM244 57Q304 57 338.5 103.5Q373 150 373 222Q373 250 367.5 275.5Q362 301 352 321L167 83Q183 70 202 63.5Q221 57 244 57ZM244 -9Q210 -9 179.5 1Q149 11 125 29L81 -28L40 1L89 64Q66 94 53 134.5Q40 175 40 222Q40 323 96.5 388Q153 453 244 453Q278 453 307.5 443.5Q337 434 362 416L403 469L444 440L398 381Q422 350 435 310Q448 270 448 222Q448 121 391 56Q334 -9 244 -9ZM203 516 283 650H361L272 516Z" glyph-name="oslashacute" horiz-adv-x="488" unicode="&#511;" /><glyph d="M443 222Q443 121 386 56Q329 -9 239 -9Q148 -9 91.5 56Q35 121 35 222Q35 323 91.5 388Q148 453 239 453Q329 453 386 388Q443 323 443 222ZM367 222Q367 294 333 340.5Q299 387 239 387Q179 387 145 340.5Q111 294 111 222Q111 150 145 103.5Q179 57 239 57Q299 57 333 103.5Q367 150 367 222ZM370 633Q370 580 350.5 547.5Q331 515 294 515Q260 515 237 544Q214 573 190 573Q173 573 164.5 558Q156 543 156 518H108Q108 571 127.5 603.5Q147 636 184 636Q219 636 241.5 607Q264 578 288 578Q304 578 312.5 593Q321 608 322 633Z" glyph-name="otilde" horiz-adv-x="478" unicode="&#245;" /><glyph d="M142 132Q159 98 190 78.5Q221 59 256 59Q319 59 355 105.5Q391 152 391 222Q391 292 355 338.5Q319 385 256 385Q221 385 190 365.5Q159 346 142 312ZM142 -170H67V444H142V392Q159 416 192.5 434.5Q226 453 267 453Q365 453 416 383.5Q467 314 467 222Q467 130 416 60.5Q365 -9 267 -9Q226 -9 192.5 9.5Q159 28 142 52Z" glyph-name="p" horiz-adv-x="502" unicode="p" /><glyph d="M353 614H416V-90H353ZM220 301Q147 301 81 338.5Q15 376 15 458Q15 540 81 577Q147 614 220 614H283V-90H220Z" glyph-name="paragraph" horiz-adv-x="489" unicode="&#182;" /><glyph d="M30 283Q30 420 103 519Q176 618 298 650V570Q218 550 161.5 474Q105 398 105 283Q105 168 161.5 92Q218 16 298 -4V-84Q176 -52 103 47Q30 146 30 283Z" glyph-name="parenleft" horiz-adv-x="321" unicode="(" /><glyph d="M30 301Q30 438 103 537Q176 636 298 668V588Q218 569 161.5 492.5Q105 416 105 301Q105 187 161.5 110.5Q218 34 298 14V-66Q176 -34 103 65Q30 164 30 301Z" glyph-name="parenleft.cap" horiz-adv-x="321" /><glyph d="M23 650Q145 618 218 519Q291 420 291 283Q291 146 218 47Q145 -52 23 -84V-4Q103 16 159.5 92Q216 168 216 283Q216 398 159.5 474Q103 550 23 570V650Z" glyph-name="parenright" horiz-adv-x="321" unicode=")" /><glyph d="M23 668Q145 636 218 537Q291 438 291 301Q291 164 218 65Q145 -34 23 -66V14Q103 34 159.5 110.5Q216 187 216 301Q216 416 159.5 492.5Q103 569 23 588V668Z" glyph-name="parenright.cap" horiz-adv-x="321" /><glyph d="M299 490Q299 435 260 396Q221 357 166 357Q111 357 72 396Q33 435 33 490Q33 545 72 584Q111 623 166 623Q221 623 260 584Q299 545 299 490ZM482 614H544L161 0H99ZM92 490Q92 459 113.5 437.5Q135 416 166 416Q197 416 219 437.5Q241 459 241 490Q241 521 219 543Q197 565 166 565Q135 565 113.5 543Q92 521 92 490ZM609 124Q609 69 570 30Q531 -9 476 -9Q421 -9 382 30Q343 69 343 124Q343 179 382 218Q421 257 476 257Q531 257 570 218Q609 179 609 124ZM550 124Q550 155 528.5 176.5Q507 198 476 198Q445 198 423 176.5Q401 155 401 124Q401 93 423 71Q445 49 476 49Q507 49 528.5 71Q550 93 550 124Z" glyph-name="percent" horiz-adv-x="642" unicode="%" /><glyph d="M19 501Q19 552 54.5 587.5Q90 623 141 623Q192 623 227.5 587.5Q263 552 263 501Q263 451 227.5 415.5Q192 380 141 380Q90 380 54.5 415.5Q19 451 19 501ZM421 614H483L100 0H38ZM72 501Q72 473 92 452.5Q112 432 141 432Q169 432 189.5 452.5Q210 473 210 501Q210 530 189.5 550.5Q169 571 141 571Q112 571 92 550.5Q72 530 72 501ZM501 113Q501 62 465.5 26.5Q430 -9 380 -9Q329 -9 293 26.5Q257 62 257 113Q257 163 293 198.5Q329 234 380 234Q430 234 465.5 198.5Q501 163 501 113ZM448 113Q448 141 428 161.5Q408 182 380 182Q351 182 330.5 161.5Q310 141 310 113Q310 84 330.5 63.5Q351 43 380 43Q408 43 428 63.5Q448 84 448 113Z" glyph-name="percent.lt" horiz-adv-x="520" /><glyph d="M32 49Q32 72 48 88Q64 104 86 104Q108 104 123.5 88Q139 72 139 49Q139 26 123.5 10.5Q108 -5 86 -5Q64 -5 48 10.5Q32 26 32 49Z" glyph-name="period" horiz-adv-x="171" unicode="." /><glyph d="M77 49Q77 72 92.5 88Q108 104 130 104Q152 104 167.5 88Q183 72 183 49Q183 26 167.5 10.5Q152 -5 130 -5Q108 -5 92.5 10.5Q77 26 77 49Z" glyph-name="period.tab" horiz-adv-x="260" /><glyph d="M34 262Q34 285 50 301Q66 317 88 317Q110 317 125.5 301Q141 285 141 262Q141 239 125.5 223.5Q110 208 88 208Q66 208 50 223.5Q34 239 34 262Z" glyph-name="periodcentered" horiz-adv-x="176" unicode="&#183;" /><glyph d="M34 302Q34 325 50 341Q66 357 88 357Q110 357 125.5 341Q141 325 141 302Q141 279 125.5 263.5Q110 248 88 248Q66 248 50 263.5Q34 279 34 302Z" glyph-name="periodcentered.cap" horiz-adv-x="176" /><glyph d="M166 357Q111 357 72 396Q33 435 33 490Q33 545 72 584Q111 623 166 623Q221 623 260 584Q299 545 299 490Q299 435 260 396Q221 357 166 357ZM482 614H544L161 0H99ZM166 565Q135 565 113.5 543Q92 521 92 490Q92 459 113.5 437.5Q135 416 166 416Q197 416 219 437.5Q241 459 241 490Q241 521 219 543Q197 565 166 565ZM609 124Q609 69 570 30Q531 -9 476 -9Q421 -9 382 30Q343 69 343 124Q343 179 382 218Q421 257 476 257Q531 257 570 218Q609 179 609 124ZM908 124Q908 69 869 30Q830 -9 775 -9Q720 -9 681 30Q642 69 642 124Q642 179 681 218Q720 257 775 257Q830 257 869 218Q908 179 908 124ZM550 124Q550 155 528.5 176.5Q507 198 476 198Q445 198 423 176.5Q401 155 401 124Q401 93 423 71Q445 49 476 49Q507 49 528.5 71Q550 93 550 124ZM849 124Q849 155 827.5 176.5Q806 198 775 198Q744 198 722 176.5Q700 155 700 124Q700 93 722 71Q744 49 775 49Q806 49 827.5 71Q849 93 849 124Z" glyph-name="perthousand" horiz-adv-x="941" unicode="&#8240;" /><glyph d="M23 501Q23 552 58.5 587.5Q94 623 145 623Q196 623 231.5 587.5Q267 552 267 501Q267 451 231.5 415.5Q196 380 145 380Q94 380 58.5 415.5Q23 451 23 501ZM425 614H487L104 0H42ZM76 501Q76 473 96 452.5Q116 432 145 432Q173 432 193.5 452.5Q214 473 214 501Q214 530 193.5 550.5Q173 571 145 571Q116 571 96 550.5Q76 530 76 501ZM505 113Q505 62 469.5 26.5Q434 -9 384 -9Q333 -9 297 26.5Q261 62 261 113Q261 163 297 198.5Q333 234 384 234Q434 234 469.5 198.5Q505 163 505 113ZM776 113Q776 62 740.5 26.5Q705 -9 655 -9Q604 -9 568.5 26.5Q533 62 533 113Q533 163 568.5 198.5Q604 234 655 234Q705 234 740.5 198.5Q776 163 776 113ZM452 113Q452 141 432 161.5Q412 182 384 182Q355 182 334.5 161.5Q314 141 314 113Q314 84 334.5 63.5Q355 43 384 43Q412 43 432 63.5Q452 84 452 113ZM724 113Q724 141 703.5 161.5Q683 182 655 182Q626 182 606 161.5Q586 141 586 113Q586 84 606 63.5Q626 43 655 43Q683 43 703.5 63.5Q724 84 724 113Z" glyph-name="perthousand.lt" horiz-adv-x="800" /><glyph d="M301 266V100H239V266H73V328H239V494H301V328H467V266Z" glyph-name="plus" horiz-adv-x="540" unicode="+" /><glyph d="M291 266V100H229V266H62V328H229V494H291V328H457V266Z" glyph-name="plus.lt" horiz-adv-x="520" /><glyph d="M303 327V198H241V327H78V389H241V518H303V389H467V327ZM78 150H467V88H78Z" glyph-name="plusminus" horiz-adv-x="544" unicode="&#177;" /><glyph d="M290 327V198H229V327H65V389H229V518H290V389H454V327ZM65 150H454V88H65Z" glyph-name="plusminus.lt" horiz-adv-x="520" /><glyph d="M669 307Q669 170 576 80.5Q483 -9 353 -9Q223 -9 130 80.5Q37 170 37 307Q37 444 130 533.5Q223 623 353 623Q483 623 576 533.5Q669 444 669 307ZM630 307Q630 427 548 505.5Q466 584 353 584Q240 584 158 505.5Q76 427 76 307Q76 187 158 108.5Q240 30 353 30Q466 30 548 108.5Q630 187 630 307ZM306 254V124H237V493H389Q446 493 481.5 462Q517 431 517 374Q517 316 481.5 285Q446 254 389 254ZM385 316Q416 316 432.5 331.5Q449 347 449 374Q449 400 432.5 416Q416 432 385 432H306V316Z" glyph-name="published" horiz-adv-x="706" /><glyph d="M360 52Q343 28 309.5 9.5Q276 -9 235 -9Q137 -9 86 60.5Q35 130 35 222Q35 314 86 383.5Q137 453 235 453Q276 453 309.5 434.5Q343 416 360 392V444H435V-170H360ZM360 312Q343 346 312 365.5Q281 385 246 385Q183 385 147 338.5Q111 292 111 222Q111 152 147 105.5Q183 59 246 59Q281 59 312 78.5Q343 98 360 132Z" glyph-name="q" horiz-adv-x="502" unicode="q" /><glyph d="M221 623Q308 623 358 576Q408 529 408 451Q408 396 374.5 354Q341 312 306 275Q281 248 272.5 229.5Q264 211 263 193H189Q191 230 204 255Q217 280 247 313Q273 343 302.5 374.5Q332 406 332 450Q332 497 302 525Q272 553 221 553Q167 553 136.5 518.5Q106 484 96 433L23 454Q39 529 91 576Q143 623 221 623ZM170 49Q170 72 185.5 88Q201 104 223 104Q245 104 261 88Q277 72 277 49Q277 26 261 10.5Q245 -5 223 -5Q201 -5 185.5 10.5Q170 26 170 49Z" glyph-name="question" horiz-adv-x="432" unicode="?" /><glyph d="M262 469Q262 446 246.5 430Q231 414 209 414Q187 414 171 430Q155 446 155 469Q155 492 171 507.5Q187 523 209 523Q231 523 246.5 507.5Q262 492 262 469ZM211 -105Q124 -105 74 -58Q24 -11 24 67Q24 122 57.5 164Q91 206 126 243Q151 270 159.5 288.5Q168 307 169 325H243Q241 288 228 263Q215 238 185 205Q159 175 129.5 143.5Q100 112 100 68Q100 21 130 -7Q160 -35 211 -35Q265 -35 295.5 -0.5Q326 34 336 85L409 64Q393 -11 341 -58Q289 -105 211 -105Z" glyph-name="questiondown" horiz-adv-x="432" unicode="&#191;" /><glyph d="M262 564Q262 541 246.5 525Q231 509 209 509Q187 509 171 525Q155 541 155 564Q155 587 171 602.5Q187 618 209 618Q231 618 246.5 602.5Q262 587 262 564ZM211 -10Q124 -10 74 37Q24 84 24 162Q24 217 57.5 259Q91 301 126 338Q151 365 159.5 383.5Q168 402 169 420H243Q241 383 228 358Q215 333 185 300Q159 270 129.5 238.5Q100 207 100 163Q100 116 130 88Q160 60 211 60Q265 60 295.5 94.5Q326 129 336 180L409 159Q393 84 341 37Q289 -10 211 -10Z" glyph-name="questiondown.cap" horiz-adv-x="432" /><glyph d="M40 614H106V395H40ZM159 614H225V395H159Z" glyph-name="quotedbl" horiz-adv-x="265" unicode="&quot;" /><glyph d="M233 0Q214 3 201.5 16Q189 29 189 50Q189 73 205 88Q221 103 243 103Q265 103 280.5 88Q296 73 296 45Q296 29 289.5 13Q283 -3 274 -18L223 -103H172ZM80 0Q61 3 48.5 16Q36 29 36 50Q36 73 52 88Q68 103 90 103Q112 103 127.5 88Q143 73 143 45Q143 29 136.5 13Q130 -3 121 -18L70 -103H19Z" glyph-name="quotedblbase" horiz-adv-x="321" unicode="&#8222;" /><glyph d="M241 511Q260 508 272.5 495Q285 482 285 461Q285 438 269 423Q253 408 231 408Q209 408 193.5 423Q178 438 178 466Q178 482 184.5 498Q191 514 200 529L251 614H302ZM88 511Q107 508 119.5 495Q132 482 132 461Q132 438 116 423Q100 408 78 408Q56 408 40.5 423Q25 438 25 466Q25 482 31.5 498Q38 514 47 529L98 614H149Z" glyph-name="quotedblleft" horiz-adv-x="321" unicode="&#8220;" /><glyph d="M233 520Q214 523 201.5 536Q189 549 189 570Q189 593 205 608Q221 623 243 623Q265 623 280.5 608Q296 593 296 565Q296 549 289.5 533Q283 517 274 502L223 417H172ZM80 520Q61 523 48.5 536Q36 549 36 570Q36 593 52 608Q68 623 90 623Q112 623 127.5 608Q143 593 143 565Q143 549 136.5 533Q130 517 121 502L70 417H19Z" glyph-name="quotedblright" horiz-adv-x="321" unicode="&#8221;" /><glyph d="M88 511Q107 508 119.5 495Q132 482 132 461Q132 438 116 423Q100 408 78 408Q56 408 40.5 423Q25 438 25 466Q25 482 31.5 498Q38 514 47 529L98 614H149Z" glyph-name="quoteleft" horiz-adv-x="168" unicode="&#8216;" /><glyph d="M80 520Q61 523 48.5 536Q36 549 36 570Q36 593 52 608Q68 623 90 623Q112 623 127.5 608Q143 593 143 565Q143 549 136.5 533Q130 517 121 502L70 417H19Z" glyph-name="quoteright" horiz-adv-x="168" unicode="&#8217;" /><glyph d="M80 0Q61 3 48.5 16Q36 29 36 50Q36 73 52 88Q68 103 90 103Q112 103 127.5 88Q143 73 143 45Q143 29 136.5 13Q130 -3 121 -18L70 -103H19Z" glyph-name="quotesinglbase" horiz-adv-x="161" unicode="&#8218;" /><glyph d="M40 614H108V395H40Z" glyph-name="quotesingle" horiz-adv-x="148" unicode="&apos;" /><glyph d="M295 369Q286 375 272.5 378Q259 381 245 381Q210 381 181.5 359Q153 337 142 298V0H67V444H142V386Q156 414 185.5 433.5Q215 453 252 453Q266 453 277.5 451Q289 449 295 446Z" glyph-name="r" horiz-adv-x="321" unicode="r" /><glyph d="M295 369Q286 375 272.5 378Q259 381 245 381Q210 381 181.5 359Q153 337 142 298V0H67V444H142V386Q156 414 185.5 433.5Q215 453 252 453Q266 453 277.5 451Q289 449 295 446ZM141 516 221 650H299L210 516Z" glyph-name="racute" horiz-adv-x="321" unicode="&#341;" /><glyph d="M295 369Q286 375 272.5 378Q259 381 245 381Q210 381 181.5 359Q153 337 142 298V0H67V444H142V386Q156 414 185.5 433.5Q215 453 252 453Q266 453 277.5 451Q289 449 295 446ZM216 510H146L54 646H119L181 559L243 646H308Z" glyph-name="rcaron" horiz-adv-x="321" unicode="&#345;" /><glyph d="M295 369Q286 375 272.5 378Q259 381 245 381Q210 381 181.5 359Q153 337 142 298V0H67V444H142V386Q156 414 185.5 433.5Q215 453 252 453Q266 453 277.5 451Q289 449 295 446ZM94 -137Q77 -135 65.5 -123Q54 -111 54 -93Q54 -72 68.5 -58.5Q83 -45 104 -45Q124 -45 138.5 -59Q153 -73 153 -95Q153 -111 146 -125Q139 -139 131 -152L102 -201H55Z" glyph-name="rcommaaccent" horiz-adv-x="321" unicode="&#343;" /><glyph d="M387 440Q387 361 333.5 309Q280 257 206 257Q132 257 78.5 309Q25 361 25 440Q25 519 78.5 571Q132 623 206 623Q280 623 333.5 571Q387 519 387 440ZM356 440Q356 507 312 550.5Q268 594 206 594Q144 594 99.5 550.5Q55 507 55 440Q55 374 99.5 330.5Q144 287 206 287Q268 287 312 330.5Q356 374 356 440ZM217 449Q231 449 239 457Q247 465 247 475Q247 486 239 494Q231 502 217 502H177V449ZM177 414V346H135V538H219Q250 538 268.5 521.5Q287 505 287 475Q287 453 275.5 438Q264 423 245 418L294 346H247L202 414Z" glyph-name="registered" horiz-adv-x="412" unicode="&#174;" /><glyph d="M337 580Q337 543 312 518.5Q287 494 250 494Q213 494 188 518.5Q163 543 163 580Q163 617 188 641.5Q213 666 250 666Q287 666 312 641.5Q337 617 337 580ZM295 580Q295 599 282 612Q269 625 250 625Q231 625 218 612Q205 599 205 580Q205 561 218 548Q231 535 250 535Q269 535 282 548Q295 561 295 580Z" glyph-name="ring" horiz-adv-x="500" unicode="&#730;" /><glyph d="M337 734Q337 698 312 673Q287 648 250 648Q213 648 188 673Q163 698 163 734Q163 771 188 796Q213 821 250 821Q287 821 312 796Q337 771 337 734ZM295 734Q295 753 282 766.5Q269 780 250 780Q231 780 218 766.5Q205 753 205 734Q205 715 218 702Q231 689 250 689Q269 689 282 702Q295 715 295 734Z" glyph-name="ring.cap" horiz-adv-x="500" /><glyph d="M100 127Q111 90 141 72Q171 54 210 54Q250 54 276.5 70.5Q303 87 303 121Q303 143 287.5 158Q272 173 238 182L151 205Q104 217 74 244Q44 271 44 322Q44 380 91 416.5Q138 453 204 453Q270 453 313.5 425Q357 397 373 347L304 327Q294 357 269 373.5Q244 390 204 390Q170 390 143.5 374Q117 358 117 326Q117 304 132.5 291Q148 278 179 270L264 249Q321 234 348.5 203Q376 172 376 126Q376 63 328 27Q280 -9 209 -9Q143 -9 93.5 21Q44 51 28 105Z" glyph-name="s" horiz-adv-x="414" unicode="s" /><glyph d="M100 127Q111 90 141 72Q171 54 210 54Q250 54 276.5 70.5Q303 87 303 121Q303 143 287.5 158Q272 173 238 182L151 205Q104 217 74 244Q44 271 44 322Q44 380 91 416.5Q138 453 204 453Q270 453 313.5 425Q357 397 373 347L304 327Q294 357 269 373.5Q244 390 204 390Q170 390 143.5 374Q117 358 117 326Q117 304 132.5 291Q148 278 179 270L264 249Q321 234 348.5 203Q376 172 376 126Q376 63 328 27Q280 -9 209 -9Q143 -9 93.5 21Q44 51 28 105ZM167 516 247 650H325L236 516Z" glyph-name="sacute" horiz-adv-x="414" unicode="&#347;" /><glyph d="M100 127Q111 90 141 72Q171 54 210 54Q250 54 276.5 70.5Q303 87 303 121Q303 143 287.5 158Q272 173 238 182L151 205Q104 217 74 244Q44 271 44 322Q44 380 91 416.5Q138 453 204 453Q270 453 313.5 425Q357 397 373 347L304 327Q294 357 269 373.5Q244 390 204 390Q170 390 143.5 374Q117 358 117 326Q117 304 132.5 291Q148 278 179 270L264 249Q321 234 348.5 203Q376 172 376 126Q376 63 328 27Q280 -9 209 -9Q143 -9 93.5 21Q44 51 28 105ZM242 510H172L80 646H145L207 559L269 646H334Z" glyph-name="scaron" horiz-adv-x="414" unicode="&#353;" /><glyph d="M100 127Q111 90 141 72Q171 54 210 54Q250 54 276.5 70.5Q303 87 303 121Q303 143 287.5 158Q272 173 238 182L151 205Q104 217 74 244Q44 271 44 322Q44 380 91 416.5Q138 453 204 453Q270 453 313.5 425Q357 397 373 347L304 327Q294 357 269 373.5Q244 390 204 390Q170 390 143.5 374Q117 358 117 326Q117 304 132.5 291Q148 278 179 270L264 249Q321 234 348.5 203Q376 172 376 126Q376 63 328 27Q280 -9 209 -9Q143 -9 93.5 21Q44 51 28 105ZM108 -183 174 -51H248L179 -183Z" glyph-name="scedilla" horiz-adv-x="414" unicode="&#351;" /><glyph d="M100 127Q111 90 141 72Q171 54 210 54Q250 54 276.5 70.5Q303 87 303 121Q303 143 287.5 158Q272 173 238 182L151 205Q104 217 74 244Q44 271 44 322Q44 380 91 416.5Q138 453 204 453Q270 453 313.5 425Q357 397 373 347L304 327Q294 357 269 373.5Q244 390 204 390Q170 390 143.5 374Q117 358 117 326Q117 304 132.5 291Q148 278 179 270L264 249Q321 234 348.5 203Q376 172 376 126Q376 63 328 27Q280 -9 209 -9Q143 -9 93.5 21Q44 51 28 105ZM334 509H269L207 597L145 509H80L172 645H242Z" glyph-name="scircumflex" horiz-adv-x="414" unicode="&#349;" /><glyph d="M100 127Q111 90 141 72Q171 54 210 54Q250 54 276.5 70.5Q303 87 303 121Q303 143 287.5 158Q272 173 238 182L151 205Q104 217 74 244Q44 271 44 322Q44 380 91 416.5Q138 453 204 453Q270 453 313.5 425Q357 397 373 347L304 327Q294 357 269 373.5Q244 390 204 390Q170 390 143.5 374Q117 358 117 326Q117 304 132.5 291Q148 278 179 270L264 249Q321 234 348.5 203Q376 172 376 126Q376 63 328 27Q280 -9 209 -9Q143 -9 93.5 21Q44 51 28 105ZM200 -137Q183 -135 171.5 -123Q160 -111 160 -93Q160 -72 174.5 -58.5Q189 -45 210 -45Q230 -45 244.5 -59Q259 -73 259 -95Q259 -111 252 -125Q245 -139 237 -152L208 -201H161Z" glyph-name="scommaaccent" horiz-adv-x="414" unicode="&#537;" /><glyph d="M315 137Q337 144 349 161Q361 178 361 200Q361 227 340.5 245.5Q320 264 295 280L139 386Q117 379 105.5 361.5Q94 344 94 322Q94 295 114 276.5Q134 258 159 242ZM231 561Q197 561 172.5 545Q148 529 148 498Q148 472 162.5 457.5Q177 443 204 425L330 341Q371 314 401 282.5Q431 251 431 202Q431 166 412.5 135Q394 104 363 88Q370 75 374.5 60.5Q379 46 379 27Q379 -33 334.5 -67Q290 -101 224 -101Q157 -101 112.5 -69Q68 -37 53 16L123 37Q130 4 155.5 -17.5Q181 -39 224 -39Q258 -39 282 -23Q306 -7 306 24Q306 50 292 65Q278 80 251 97L124 182Q83 209 53 240Q23 271 23 320Q23 356 41.5 386Q60 416 91 433Q84 445 79.5 460.5Q75 476 75 495Q75 555 119.5 589Q164 623 231 623Q297 623 341.5 591Q386 559 401 506L332 485Q324 518 299 539.5Q274 561 231 561Z" glyph-name="section" horiz-adv-x="455" unicode="&#167;" /><glyph d="M32 363Q32 386 48 402Q64 418 86 418Q108 418 123.5 402Q139 386 139 363Q139 340 123.5 324.5Q108 309 86 309Q64 309 48 324.5Q32 340 32 363ZM76 -1Q57 2 44.5 14.5Q32 27 32 49Q32 72 48 87Q64 102 86 102Q108 102 123.5 87Q139 72 139 44Q139 28 132.5 11.5Q126 -5 117 -19L64 -107H13Z" glyph-name="semicolon" horiz-adv-x="171" unicode=";" /><glyph d="M76 363Q76 386 92 402Q108 418 130 418Q152 418 167.5 402Q183 386 183 363Q183 340 167.5 324.5Q152 309 130 309Q108 309 92 324.5Q76 340 76 363ZM120 -1Q101 2 88.5 14.5Q76 27 76 49Q76 72 92 87Q108 102 130 102Q152 102 167.5 87Q183 72 183 44Q183 28 176.5 11.5Q170 -5 161 -19L108 -107H57Z" glyph-name="semicolon.tab" horiz-adv-x="260" /><glyph d="M196 0H117L334 544H18V614H415V553Z" glyph-name="seven" horiz-adv-x="440" unicode="7" /><glyph d="M243 0H164L388 544H47V614H468V553Z" glyph-name="seven.lt" horiz-adv-x="520" /><glyph d="M383 471Q370 510 341.5 534Q313 558 268 558Q199 558 154.5 490Q110 422 110 323Q110 319 110.5 309.5Q111 300 111 296Q126 342 169 371.5Q212 401 266 401Q355 401 410 340.5Q465 280 465 197Q465 113 409 52Q353 -9 259 -9Q199 -9 151.5 21Q104 51 76 108Q57 149 48.5 195.5Q40 242 40 296Q40 445 104 534Q168 623 268 623Q342 623 387.5 587.5Q433 552 454 491ZM127 196Q127 136 164 97Q201 58 260 58Q317 58 354.5 97Q392 136 392 196Q392 257 354.5 296.5Q317 336 260 336Q202 336 164.5 297Q127 258 127 196Z" glyph-name="six" horiz-adv-x="500" unicode="6" /><glyph d="M398 471Q386 510 356.5 534Q327 558 281 558Q212 558 166.5 490Q121 422 121 323Q121 319 121.5 310Q122 301 122 296Q138 342 181.5 371.5Q225 401 280 401Q370 401 425.5 340.5Q481 280 481 197Q481 113 424 52Q367 -9 273 -9Q212 -9 164 21Q116 51 88 108Q68 149 59.5 195.5Q51 242 51 296Q51 445 115.5 534Q180 623 281 623Q356 623 402.5 587.5Q449 552 469 492ZM138 196Q138 136 176 97Q214 58 273 58Q331 58 369.5 97Q408 136 408 196Q408 257 369.5 296.5Q331 336 273 336Q214 336 176 297Q138 258 138 196Z" glyph-name="six.lt" horiz-adv-x="520" /><glyph d="M253 650H328L80 -84H5Z" glyph-name="slash" horiz-adv-x="333" unicode="/" /><glyph d="M253 670H328L80 -64H5Z" glyph-name="slash.cap" horiz-adv-x="333" /><glyph glyph-name="space" horiz-adv-x="221" unicode=" " /><glyph glyph-name="space.tab" horiz-adv-x="260" /><glyph d="M460 0H31V65H92Q102 82 108 102.5Q114 123 114 156V272H31V334H114V425Q114 511 164.5 567Q215 623 296 623Q362 623 404 588.5Q446 554 459 498L391 478Q383 514 359.5 535.5Q336 557 296 557Q245 557 216 521Q187 485 187 425V334H341V272H187V156Q187 130 181 105Q175 80 164 65H460Z" glyph-name="sterling" horiz-adv-x="488" unicode="&#163;" /><glyph d="M474 0H44V65H105Q115 82 121 102.5Q127 123 127 156V272H44V334H127V425Q127 511 177.5 567Q228 623 309 623Q376 623 418 588.5Q460 554 473 498L405 478Q397 514 373.5 535.5Q350 557 309 557Q259 557 229.5 521Q200 485 200 425V334H355V272H200V156Q200 130 194.5 105Q189 80 178 65H474Z" glyph-name="sterling.lt" horiz-adv-x="520" /><glyph d="M88 380H16V444H88V561H163V444H270V380H163V119Q163 87 179 72.5Q195 58 222 58Q238 58 250.5 62.5Q263 67 274 73L292 13Q278 3 255 -3Q232 -9 211 -9Q157 -9 122.5 20.5Q88 50 88 111Z" glyph-name="t" horiz-adv-x="317" unicode="t" /><glyph d="M296 13Q282 3 259 -3Q236 -9 215 -9Q161 -9 126.5 20.5Q92 50 92 111V219H29V280H92V380H20V444H92V561H167V444H274V380H167V280H258V219H167V119Q167 87 182.5 72.5Q198 58 226 58Q242 58 254.5 62.5Q267 67 278 73L296 13Z" glyph-name="tbar" horiz-adv-x="321" unicode="&#359;" /><glyph d="M88 380H16V444H88V561H163V444H270V380H163V119Q163 87 179 72.5Q195 58 222 58Q238 58 250.5 62.5Q263 67 274 73L292 13Q278 3 255 -3Q232 -9 211 -9Q157 -9 122.5 20.5Q88 50 88 111ZM216 496 249 660H309L276 496Z" glyph-name="tcaron" horiz-adv-x="317" unicode="&#357;" /><glyph d="M88 380H16V444H88V561H163V444H270V380H163V119Q163 87 179 72.5Q195 58 222 58Q238 58 250.5 62.5Q263 67 274 73L292 13Q278 3 255 -3Q232 -9 211 -9Q157 -9 122.5 20.5Q88 50 88 111ZM179 -137Q162 -135 150.5 -123Q139 -111 139 -93Q139 -72 153.5 -58.5Q168 -45 189 -45Q209 -45 223.5 -59Q238 -73 238 -95Q238 -111 231 -125Q224 -139 216 -152L187 -201H140Z" glyph-name="tcommaaccent" horiz-adv-x="317" unicode="&#355;" /><glyph d="M142 132Q159 98 190 78.5Q221 59 256 59Q319 59 355 105.5Q391 152 391 222Q391 292 355 338.5Q319 385 256 385Q221 385 190 365.5Q159 346 142 312ZM142 -170H67V650H142V392Q159 416 192.5 434.5Q226 453 267 453Q365 453 416 383.5Q467 314 467 222Q467 130 416 60.5Q365 -9 267 -9Q226 -9 192.5 9.5Q159 28 142 52Z" glyph-name="thorn" horiz-adv-x="502" unicode="&#254;" /><glyph d="M184 348H225Q274 348 307.5 375Q341 402 341 451Q341 495 310.5 525Q280 555 229 555Q178 555 146 524.5Q114 494 104 447L33 467Q49 536 101 579.5Q153 623 228 623Q315 623 365 575.5Q415 528 415 455Q415 404 388 366Q361 328 319 315Q368 301 397.5 262Q427 223 427 172Q427 97 374 44Q321 -9 228 -9Q144 -9 88.5 36Q33 81 20 154L92 175Q102 123 136 91Q170 59 227 59Q281 59 316.5 89.5Q352 120 352 171Q352 222 315.5 251.5Q279 281 227 281H184Z" glyph-name="three" horiz-adv-x="460" unicode="3" /><glyph d="M216 348H259Q308 348 343 375Q378 402 378 451Q378 495 346.5 525Q315 555 263 555Q212 555 178 524.5Q144 494 134 447L63 467Q79 536 132 579.5Q185 623 262 623Q351 623 402 575.5Q453 528 453 455Q453 404 425 366Q397 328 354 315Q404 301 434 262Q464 223 464 172Q464 97 409.5 44Q355 -9 262 -9Q176 -9 119.5 36Q63 81 49 154L122 175Q132 123 168 91Q204 59 262 59Q317 59 353.5 89.5Q390 120 390 171Q390 222 352.5 251.5Q315 281 262 281H216Z" glyph-name="three.lt" horiz-adv-x="520" /><glyph d="M179 0H112L541 614H608ZM140 475H164Q186 475 200.5 486.5Q215 498 215 520Q215 539 201.5 552Q188 565 166 565Q144 565 129.5 552Q115 539 111 517L56 533Q66 570 94.5 594.5Q123 619 166 619Q217 619 245.5 592Q274 565 274 523Q274 498 261 478Q248 458 229 450Q252 443 265.5 423Q279 403 279 378Q279 334 249 305Q219 276 165 276Q119 276 88 299.5Q57 323 49 364L107 381Q111 358 126.5 344Q142 330 167 330Q190 330 205 343.5Q220 357 220 379Q220 401 204.5 413.5Q189 426 166 426H140ZM468 122H549V189H605V122H657V69H605V0H549V69H399V116L513 333H575Z" glyph-name="threequarters" horiz-adv-x="706" unicode="&#190;" /><glyph d="M114 475H138Q160 475 174.5 487Q189 499 189 521Q189 540 175.5 553Q162 566 140 566Q118 566 103.5 552.5Q89 539 85 517L30 534Q40 571 68.5 595Q97 619 140 619Q191 619 219.5 592.5Q248 566 248 523Q248 498 235 478Q222 458 203 451Q226 443 239.5 423Q253 403 253 378Q253 335 223 306Q193 277 139 277Q93 277 62 300.5Q31 324 23 364L81 382Q85 358 100.5 344.5Q116 331 141 331Q164 331 179 344Q194 357 194 380Q194 402 178.5 414.5Q163 427 140 427H114Z" glyph-name="threesuperior" horiz-adv-x="281" unicode="&#179;" /><glyph d="M381 633Q381 580 361.5 547.5Q342 515 305 515Q271 515 248 544Q225 573 201 573Q184 573 175.5 558Q167 543 167 518H119Q119 571 138.5 603.5Q158 636 195 636Q230 636 252.5 607Q275 578 299 578Q315 578 323.5 593Q332 608 333 633Z" glyph-name="tilde" horiz-adv-x="500" unicode="&#732;" /><glyph d="M384 784Q384 731 364.5 698Q345 665 308 665Q271 665 248 693Q225 721 198 721Q181 721 172.5 707Q164 693 164 668H115Q115 721 134.5 754Q154 787 191 787Q228 787 251 759Q274 731 302 731Q318 731 326.5 745Q335 759 336 784Z" glyph-name="tilde.cap" horiz-adv-x="500" /><glyph d="M18 614H235V568H154V360H100V568H18ZM391 360 326 528V360H276V614H340L409 434L478 614H542V360H492V528L427 360Z" glyph-name="trademark" horiz-adv-x="586" unicode="&#8482;" /><glyph d="M341 449Q341 496 311.5 524.5Q282 553 232 553Q177 553 145.5 518Q114 483 105 432L32 453Q48 528 100.5 575.5Q153 623 232 623Q319 623 368 575.5Q417 528 417 450Q417 392 378 342.5Q339 293 293 241L137 70H430V0H29V52L227 270Q275 322 308 364Q341 406 341 449Z" glyph-name="two" horiz-adv-x="457" unicode="2" /><glyph d="M367 449Q367 496 337 524.5Q307 553 256 553Q200 553 167.5 517Q135 481 128 430L55 451Q69 526 122 574.5Q175 623 256 623Q344 623 394 575.5Q444 528 444 450Q444 392 404.5 342.5Q365 293 318 241L159 70H456V0H51V52L252 270Q301 322 334 364Q367 406 367 449Z" glyph-name="two.lt" horiz-adv-x="520" /><glyph d="M184 519Q184 539 171 551Q158 563 138 563Q116 563 101.5 547.5Q87 532 83 510L25 527Q35 567 65 593Q95 619 139 619Q189 619 217.5 592Q246 565 246 521Q246 489 226.5 463.5Q207 438 182 412L108 336H249V282H23V325L135 442Q158 466 171 483Q184 500 184 519Z" glyph-name="twosuperior" horiz-adv-x="276" unicode="&#178;" /><glyph d="M421 0H345V56Q326 30 292.5 10.5Q259 -9 216 -9Q141 -9 101 36Q61 81 61 153V444H137V165Q137 119 160.5 89.5Q184 60 234 60Q273 60 303 83.5Q333 107 345 143V444H421Z" glyph-name="u" horiz-adv-x="487" unicode="u" /><glyph d="M421 0H345V56Q326 30 292.5 10.5Q259 -9 216 -9Q141 -9 101 36Q61 81 61 153V444H137V165Q137 119 160.5 89.5Q184 60 234 60Q273 60 303 83.5Q333 107 345 143V444H421ZM203 516 283 650H361L272 516Z" glyph-name="uacute" horiz-adv-x="487" unicode="&#250;" /><glyph d="M421 0H345V56Q326 30 292.5 10.5Q259 -9 216 -9Q141 -9 101 36Q61 81 61 153V444H137V165Q137 119 160.5 89.5Q184 60 234 60Q273 60 303 83.5Q333 107 345 143V444H421ZM243 500Q193 500 161 533Q129 566 129 628H186Q186 594 200.5 574.5Q215 555 243 555Q271 555 285.5 574.5Q300 594 300 628H357Q357 566 325 533Q293 500 243 500Z" glyph-name="ubreve" horiz-adv-x="487" unicode="&#365;" /><glyph d="M421 0H345V56Q326 30 292.5 10.5Q259 -9 216 -9Q141 -9 101 36Q61 81 61 153V444H137V165Q137 119 160.5 89.5Q184 60 234 60Q273 60 303 83.5Q333 107 345 143V444H421ZM370 509H305L243 597L181 509H116L208 645H278Z" glyph-name="ucircumflex" horiz-adv-x="487" unicode="&#251;" /><glyph d="M421 0H345V56Q326 30 292.5 10.5Q259 -9 216 -9Q141 -9 101 36Q61 81 61 153V444H137V165Q137 119 160.5 89.5Q184 60 234 60Q273 60 303 83.5Q333 107 345 143V444H421ZM127 571Q127 591 141 604.5Q155 618 174 618Q193 618 206.5 604.5Q220 591 220 571Q220 552 206.5 538.5Q193 525 174 525Q155 525 141 538.5Q127 552 127 571ZM268 571Q268 591 281 604.5Q294 618 313 618Q332 618 346 604.5Q360 591 360 571Q360 552 346 538.5Q332 525 313 525Q294 525 281 538.5Q268 552 268 571Z" glyph-name="udieresis" horiz-adv-x="487" unicode="&#252;" /><glyph d="M421 0H345V56Q326 30 292.5 10.5Q259 -9 216 -9Q141 -9 101 36Q61 81 61 153V444H137V165Q137 119 160.5 89.5Q184 60 234 60Q273 60 303 83.5Q333 107 345 143V444H421ZM212 516 123 650H201L281 516Z" glyph-name="ugrave" horiz-adv-x="487" unicode="&#249;" /><glyph d="M421 0H345V56Q326 30 292.5 10.5Q259 -9 216 -9Q141 -9 101 36Q61 81 61 153V444H137V165Q137 119 160.5 89.5Q184 60 234 60Q273 60 303 83.5Q333 107 345 143V444H421ZM149 516 215 650H280L212 516ZM268 516 335 650H399L331 516Z" glyph-name="uhungarumlaut" horiz-adv-x="487" unicode="&#369;" /><glyph d="M421 0H345V56Q326 30 292.5 10.5Q259 -9 216 -9Q141 -9 101 36Q61 81 61 153V444H137V165Q137 119 160.5 89.5Q184 60 234 60Q273 60 303 83.5Q333 107 345 143V444H421ZM137 591H350V530H137Z" glyph-name="umacron" horiz-adv-x="487" unicode="&#363;" /><glyph d="M20 -42H347V-110H20Z" glyph-name="underscore" horiz-adv-x="367" unicode="_" /><glyph glyph-name="uni00A0" horiz-adv-x="221" unicode="&#160;" /><glyph d="M191 282H129V541L41 497V561L149 615H191ZM140 0H73L502 614H569ZM492 193H515Q537 193 552 205Q567 217 567 239Q567 258 553.5 271Q540 284 518 284Q496 284 481.5 270.5Q467 257 463 235L407 252Q417 289 445.5 313.5Q474 338 517 338Q568 338 597 311Q626 284 626 241Q626 216 612.5 196Q599 176 580 169Q604 161 617.5 141.5Q631 122 631 97Q631 53 600.5 24Q570 -5 517 -5Q471 -5 440 18.5Q409 42 401 83L459 100Q463 76 478 62.5Q493 49 518 49Q542 49 556.5 62Q571 75 571 98Q571 120 555.5 132.5Q540 145 517 145H492Z" glyph-name="uni2153" horiz-adv-x="685" unicode="&#8531;" /><glyph d="M210 522Q210 541 197 553.5Q184 566 164 566Q142 566 127.5 550Q113 534 109 512L51 530Q61 569 91 595.5Q121 622 165 622Q215 622 243.5 594.5Q272 567 272 523Q272 491 252.5 465.5Q233 440 208 414L134 339H275V284H49V327L161 444Q184 468 197 485.5Q210 503 210 522ZM200 0H133L562 614H629ZM552 193H575Q597 193 612 205Q627 217 627 239Q627 258 613.5 271Q600 284 578 284Q556 284 541.5 270.5Q527 257 523 235L468 252Q478 289 506 313.5Q534 338 577 338Q628 338 657 311Q686 284 686 241Q686 216 673 196Q660 176 641 169Q664 161 677.5 141.5Q691 122 691 97Q691 53 661 24Q631 -5 577 -5Q531 -5 500 18.5Q469 42 461 83L519 100Q523 76 538 62.5Q553 49 578 49Q602 49 616.5 62Q631 75 631 98Q631 120 615.5 132.5Q600 145 577 145H552Z" glyph-name="uni2154" horiz-adv-x="745" unicode="&#8532;" /><glyph d="M191 282H129V541L41 497V561L149 615H191ZM140 0H73L502 614H569ZM519 -4Q469 -4 434 22Q399 48 399 92Q399 123 416 144Q433 165 458 172Q436 182 423.5 201Q411 220 411 245Q411 289 442.5 313.5Q474 338 519 338Q563 338 595 313.5Q627 289 627 245Q627 220 614 201Q601 182 579 172Q604 165 621 144Q638 123 638 92Q638 48 603.5 22Q569 -4 519 -4ZM519 199Q540 199 554 212Q568 225 568 244Q568 264 554 276.5Q540 289 519 289Q497 289 483 276.5Q469 264 469 244Q469 225 483 212Q497 199 519 199ZM519 46Q544 46 560.5 60.5Q577 75 577 97Q577 119 560.5 133Q544 147 519 147Q494 147 477.5 133Q461 119 461 97Q461 75 477.5 60.5Q494 46 519 46Z" glyph-name="uni215B" horiz-adv-x="691" unicode="&#8539;" /><glyph d="M179 0H112L540 614H608ZM140 475H164Q186 475 200.5 487Q215 499 215 521Q215 540 201.5 553Q188 566 166 566Q144 566 129.5 552.5Q115 539 111 517L56 534Q66 571 94.5 595Q123 619 166 619Q217 619 245.5 592.5Q274 566 274 523Q274 498 261 478Q248 458 229 451Q252 443 265.5 423Q279 403 279 378Q279 335 249 306Q219 277 165 277Q119 277 88 300.5Q57 324 49 364L107 382Q111 358 126.5 344.5Q142 331 167 331Q190 331 205 344Q220 357 220 380Q220 402 204.5 414.5Q189 427 166 427H140ZM558 -4Q508 -4 473 22Q438 48 438 92Q438 123 455 144Q472 165 497 172Q475 182 462 201Q449 220 449 245Q449 289 481 313.5Q513 338 558 338Q601 338 633.5 313.5Q666 289 666 245Q666 220 652.5 201Q639 182 618 172Q643 165 660 144Q677 123 677 92Q677 48 642.5 22Q608 -4 558 -4ZM558 199Q579 199 593 212Q607 225 607 244Q607 264 593 276.5Q579 289 558 289Q536 289 521.5 276.5Q507 264 507 244Q507 225 521.5 212Q536 199 558 199ZM558 46Q583 46 599.5 60.5Q616 75 616 97Q616 119 599.5 133Q583 147 558 147Q533 147 516.5 133Q500 119 500 97Q500 75 516.5 60.5Q533 46 558 46Z" glyph-name="uni215C" horiz-adv-x="730" unicode="&#8540;" /><glyph d="M183 0H116L544 614H612ZM171 447Q155 447 142.5 440Q130 433 123 423H70V614H263V559H121V482Q130 489 145 494Q160 499 177 499Q226 499 255.5 468Q285 437 285 389Q285 340 252 308.5Q219 277 168 277Q122 277 91.5 300Q61 323 52 364L110 381Q115 358 130 344.5Q145 331 169 331Q194 331 209.5 347.5Q225 364 225 388Q225 413 210 430Q195 447 171 447ZM562 -4Q511 -4 476.5 22Q442 48 442 92Q442 123 459 144Q476 165 501 172Q479 182 466 201Q453 220 453 245Q453 289 485 313.5Q517 338 562 338Q605 338 637.5 313.5Q670 289 670 245Q670 220 656.5 201Q643 182 622 172Q647 165 664 144Q681 123 681 92Q681 48 646.5 22Q612 -4 562 -4ZM562 199Q583 199 597 212Q611 225 611 244Q611 264 597 276.5Q583 289 562 289Q540 289 525.5 276.5Q511 264 511 244Q511 225 525.5 212Q540 199 562 199ZM562 46Q587 46 603.5 60.5Q620 75 620 97Q620 119 603.5 133Q587 147 562 147Q537 147 520.5 133Q504 119 504 97Q504 75 520.5 60.5Q537 46 562 46Z" glyph-name="uni215D" horiz-adv-x="733" unicode="&#8541;" /><glyph d="M123 0H56L484 614H551ZM161 281H96L203 558H46V614H270V568ZM502 -4Q451 -4 416.5 22Q382 48 382 92Q382 123 399 144Q416 165 441 172Q419 182 406 201Q393 220 393 245Q393 289 425 313.5Q457 338 502 338Q545 338 577.5 313.5Q610 289 610 245Q610 220 596.5 201Q583 182 562 172Q587 165 604 144Q621 123 621 92Q621 48 586.5 22Q552 -4 502 -4ZM502 199Q523 199 537 212Q551 225 551 244Q551 264 537 276.5Q523 289 502 289Q480 289 465.5 276.5Q451 264 451 244Q451 225 465.5 212Q480 199 502 199ZM502 46Q527 46 543.5 60.5Q560 75 560 97Q560 119 543.5 133Q527 147 502 147Q477 147 460.5 133Q444 119 444 97Q444 75 460.5 60.5Q477 46 502 46Z" glyph-name="uni215E" horiz-adv-x="673" unicode="&#8542;" /><glyph d="M421 0Q392 -49 382 -68.5Q372 -88 372 -106Q372 -119 378 -125.5Q384 -132 394 -132Q404 -132 412.5 -128Q421 -124 431 -117V-167Q421 -175 408 -180.5Q395 -186 379 -186Q347 -186 330 -168Q313 -150 313 -120Q313 -92 327.5 -64.5Q342 -37 365 0H345V56Q326 30 292.5 10.5Q259 -9 216 -9Q141 -9 101 36Q61 81 61 153V444H137V165Q137 119 160.5 89.5Q184 60 234 60Q273 60 303 83.5Q333 107 345 143V444H421Z" glyph-name="uogonek" horiz-adv-x="487" unicode="&#371;" /><glyph d="M421 0H345V56Q326 30 292.5 10.5Q259 -9 216 -9Q141 -9 101 36Q61 81 61 153V444H137V165Q137 119 160.5 89.5Q184 60 234 60Q273 60 303 83.5Q333 107 345 143V444H421ZM330 580Q330 543 305 518.5Q280 494 243 494Q206 494 181 518.5Q156 543 156 580Q156 617 181 641.5Q206 666 243 666Q280 666 305 641.5Q330 617 330 580ZM288 580Q288 599 275 612Q262 625 243 625Q224 625 211 612Q198 599 198 580Q198 561 211 548Q224 535 243 535Q262 535 275 548Q288 561 288 580Z" glyph-name="uring" horiz-adv-x="487" unicode="&#367;" /><glyph d="M421 0H345V56Q326 30 292.5 10.5Q259 -9 216 -9Q141 -9 101 36Q61 81 61 153V444H137V165Q137 119 160.5 89.5Q184 60 234 60Q273 60 303 83.5Q333 107 345 143V444H421ZM375 633Q375 580 355.5 547.5Q336 515 299 515Q265 515 242 544Q219 573 195 573Q178 573 169.5 558Q161 543 161 518H113Q113 571 132.5 603.5Q152 636 189 636Q224 636 246.5 607Q269 578 293 578Q309 578 317.5 593Q326 608 327 633Z" glyph-name="utilde" horiz-adv-x="487" unicode="&#361;" /><glyph d="M190 0 18 444H99L229 95L358 444H437L264 0Z" glyph-name="v" horiz-adv-x="455" unicode="v" /><glyph d="M440 105 538 444H611L480 0H407L315 337L222 0H149L18 444H93L191 105L282 444H349Z" glyph-name="w" horiz-adv-x="629" unicode="w" /><glyph d="M440 105 538 444H611L480 0H407L315 337L222 0H149L18 444H93L191 105L282 444H349ZM275 516 355 650H433L344 516Z" glyph-name="wacute" horiz-adv-x="629" unicode="&#7811;" /><glyph d="M440 105 538 444H611L480 0H407L315 337L222 0H149L18 444H93L191 105L282 444H349ZM442 509H377L315 597L253 509H188L280 645H350Z" glyph-name="wcircumflex" horiz-adv-x="629" unicode="&#373;" /><glyph d="M440 105 538 444H611L480 0H407L315 337L222 0H149L18 444H93L191 105L282 444H349ZM198 571Q198 591 212 604.5Q226 618 245 618Q264 618 277.5 604.5Q291 591 291 571Q291 552 277.5 538.5Q264 525 245 525Q226 525 212 538.5Q198 552 198 571ZM339 571Q339 591 352 604.5Q365 618 384 618Q403 618 417 604.5Q431 591 431 571Q431 552 417 538.5Q403 525 384 525Q365 525 352 538.5Q339 552 339 571Z" glyph-name="wdieresis" horiz-adv-x="629" unicode="&#7813;" /><glyph d="M440 105 538 444H611L480 0H407L315 337L222 0H149L18 444H93L191 105L282 444H349ZM284 516 195 650H273L353 516Z" glyph-name="wgrave" horiz-adv-x="629" unicode="&#7809;" /><glyph d="M266 230 431 0H346L223 173L99 0H18L182 227L27 444H113L225 285L340 444H422Z" glyph-name="x" horiz-adv-x="449" unicode="x" /><glyph d="M192 -3 18 444H99L230 94L359 444H437L237 -66Q214 -126 178.5 -152.5Q143 -179 100 -179Q81 -179 65 -174Q49 -169 39 -162L56 -103Q63 -107 73 -111Q83 -115 97 -115Q122 -115 140 -101Q158 -87 171 -54Z" glyph-name="y" horiz-adv-x="455" unicode="y" /><glyph d="M192 -3 18 444H99L230 94L359 444H437L237 -66Q214 -126 178.5 -152.5Q143 -179 100 -179Q81 -179 65 -174Q49 -169 39 -162L56 -103Q63 -107 73 -111Q83 -115 97 -115Q122 -115 140 -101Q158 -87 171 -54ZM188 516 268 650H346L257 516Z" glyph-name="yacute" horiz-adv-x="455" unicode="&#253;" /><glyph d="M192 -3 18 444H99L230 94L359 444H437L237 -66Q214 -126 178.5 -152.5Q143 -179 100 -179Q81 -179 65 -174Q49 -169 39 -162L56 -103Q63 -107 73 -111Q83 -115 97 -115Q122 -115 140 -101Q158 -87 171 -54ZM355 509H290L228 597L166 509H101L193 645H263Z" glyph-name="ycircumflex" horiz-adv-x="455" unicode="&#375;" /><glyph d="M192 -3 18 444H99L230 94L359 444H437L237 -66Q214 -126 178.5 -152.5Q143 -179 100 -179Q81 -179 65 -174Q49 -169 39 -162L56 -103Q63 -107 73 -111Q83 -115 97 -115Q122 -115 140 -101Q158 -87 171 -54ZM111 571Q111 591 125 604.5Q139 618 158 618Q177 618 190.5 604.5Q204 591 204 571Q204 552 190.5 538.5Q177 525 158 525Q139 525 125 538.5Q111 552 111 571ZM252 571Q252 591 265 604.5Q278 618 297 618Q316 618 330 604.5Q344 591 344 571Q344 552 330 538.5Q316 525 297 525Q278 525 265 538.5Q252 552 252 571Z" glyph-name="ydieresis" horiz-adv-x="455" unicode="&#255;" /><glyph d="M306 134V0H228V134H71V194H228V264H71V323H198L25 614H109L269 339L428 614H509L336 323H463V264H306V194H463V134Z" glyph-name="yen" horiz-adv-x="535" unicode="&#165;" /><glyph d="M298 134V0H221V134H64V194H221V264H64V323H192L24 614H108L261 339L414 614H495L327 323H455V264H298V194H455V134Z" glyph-name="yen.lt" horiz-adv-x="520" /><glyph d="M192 -3 18 444H99L230 94L359 444H437L237 -66Q214 -126 178.5 -152.5Q143 -179 100 -179Q81 -179 65 -174Q49 -169 39 -162L56 -103Q63 -107 73 -111Q83 -115 97 -115Q122 -115 140 -101Q158 -87 171 -54ZM197 516 108 650H186L266 516Z" glyph-name="ygrave" horiz-adv-x="455" unicode="&#7923;" /><glyph d="M390 0H41V49L290 380H49V444H386V395L139 64H390Z" glyph-name="z" horiz-adv-x="434" unicode="z" /><glyph d="M390 0H41V49L290 380H49V444H386V395L139 64H390ZM184 516 264 650H342L253 516Z" glyph-name="zacute" horiz-adv-x="434" unicode="&#378;" /><glyph d="M390 0H41V49L290 380H49V444H386V395L139 64H390ZM259 510H189L97 646H162L224 559L286 646H351Z" glyph-name="zcaron" horiz-adv-x="434" unicode="&#382;" /><glyph d="M390 0H41V49L290 380H49V444H386V395L139 64H390ZM272 578Q272 559 257.5 544.5Q243 530 224 530Q205 530 190.5 544.5Q176 559 176 578Q176 598 190.5 612Q205 626 224 626Q243 626 257.5 612Q272 598 272 578Z" glyph-name="zdotaccent" horiz-adv-x="434" unicode="&#380;" /><glyph d="M269 -9Q167 -9 103.5 79Q40 167 40 307Q40 447 103.5 535Q167 623 269 623Q371 623 434.5 535Q498 447 498 307Q498 167 434.5 79Q371 -9 269 -9ZM269 552Q194 552 155.5 483Q117 414 117 307Q117 200 155.5 131Q194 62 269 62Q343 62 382 131Q421 200 421 307Q421 414 382 483Q343 552 269 552Z" glyph-name="zero" horiz-adv-x="538" unicode="0" /><glyph d="M260 -9Q158 -9 95 79Q32 167 32 307Q32 447 95 535Q158 623 260 623Q362 623 425 535Q488 447 488 307Q488 167 425 79Q362 -9 260 -9ZM260 552Q185 552 146.5 483Q108 414 108 307Q108 200 146.5 131Q185 62 260 62Q334 62 372.5 131Q411 200 411 307Q411 414 372.5 483Q334 552 260 552Z" glyph-name="zero.lt" horiz-adv-x="520" /></font>
</defs>
</svg>
